<svg width="20" height="22" viewBox="0 0 20 22" fill="none" xmlns="http://www.w3.org/2000/svg">
<path fill-rule="evenodd" clip-rule="evenodd" d="M9.96802 5.86003e-07H10.032C10.4706 -1.16926e-05 10.8491 -2.25399e-05 11.1624 0.021351C11.4922 0.043855 11.8221 0.0933587 12.1481 0.228363C12.8831 0.532845 13.4672 1.11687 13.7716 1.85195C13.9066 2.17788 13.9561 2.50779 13.9787 2.83762C14 3.15088 14 3.52936 14 3.96801V4L15.8385 4C16.3657 3.99998 16.8205 3.99997 17.195 4.03057C17.5904 4.06287 17.9836 4.13419 18.362 4.32698C18.9265 4.6146 19.3854 5.07354 19.673 5.63803C19.8658 6.01641 19.9371 6.40963 19.9694 6.80497C20 7.17954 20 7.6343 20 8.16144V17.8386C20 18.3657 20 18.8205 19.9694 19.195C19.9371 19.5904 19.8658 19.9836 19.673 20.362C19.3854 20.9265 18.9265 21.3854 18.362 21.673C17.9836 21.8658 17.5904 21.9371 17.195 21.9694C16.8205 22 16.3657 22 15.8386 22H4.16144C3.6343 22 3.17954 22 2.80497 21.9694C2.40963 21.9371 2.01641 21.8658 1.63803 21.673C1.07354 21.3854 0.614602 20.9265 0.326982 20.362C0.134188 19.9836 0.0628723 19.5904 0.0305712 19.195C-3.25181e-05 18.8205 -1.70213e-05 18.3657 8.6011e-07 17.8385V12.1615C-1.70213e-05 11.6343 -3.25181e-05 11.1795 0.0305712 10.805C0.0628723 10.4096 0.134188 10.0164 0.326982 9.63803C0.614602 9.07354 1.07354 8.6146 1.63803 8.32698C2.01641 8.13419 2.40963 8.06287 2.80497 8.03057C3.17955 7.99997 3.63431 7.99998 4.16146 8L6 8L6 3.96801C5.99999 3.52936 5.99998 3.15088 6.02135 2.83762C6.04386 2.50779 6.09336 2.17788 6.22836 1.85195C6.53285 1.11687 7.11687 0.532845 7.85195 0.228363C8.17788 0.0933587 8.50779 0.043855 8.83762 0.021351C9.15088 -2.25399e-05 9.52937 -1.16926e-05 9.96802 5.86003e-07ZM6 10H4.2C3.62345 10 3.25117 10.0008 2.96784 10.0239C2.69617 10.0461 2.59546 10.0838 2.54601 10.109C2.35785 10.2049 2.20487 10.3578 2.109 10.546C2.0838 10.5955 2.04612 10.6962 2.02393 10.9678C2.00078 11.2512 2 11.6234 2 12.2V17.8C2 18.3766 2.00078 18.7488 2.02393 19.0322C2.04612 19.3038 2.0838 19.4045 2.109 19.454C2.20487 19.6422 2.35785 19.7951 2.54601 19.891C2.59546 19.9162 2.69617 19.9539 2.96784 19.9761C3.25117 19.9992 3.62345 20 4.2 20H6V10ZM8 20H12V4C12 3.52038 11.9995 3.21074 11.9833 2.97376C11.9677 2.74576 11.9411 2.65893 11.9239 2.61732C11.8224 2.37229 11.6277 2.17762 11.3827 2.07612C11.3411 2.05888 11.2542 2.03227 11.0262 2.01671C10.7893 2.00054 10.4796 2 10 2C9.52038 2 9.21074 2.00054 8.97376 2.01671C8.74576 2.03227 8.65893 2.05888 8.61732 2.07612C8.37229 2.17762 8.17762 2.37229 8.07612 2.61732C8.05889 2.65893 8.03227 2.74576 8.01671 2.97376C8.00054 3.21074 8 3.52038 8 4V20ZM14 20H15.8C16.3766 20 16.7488 19.9992 17.0322 19.9761C17.3038 19.9539 17.4045 19.9162 17.454 19.891C17.6422 19.7951 17.7951 19.6422 17.891 19.454C17.9162 19.4045 17.9539 19.3038 17.9761 19.0322C17.9992 18.7488 18 18.3766 18 17.8V8.2C18 7.62345 17.9992 7.25117 17.9761 6.96784C17.9539 6.69617 17.9162 6.59545 17.891 6.54601C17.7951 6.35785 17.6422 6.20487 17.454 6.10899C17.4045 6.0838 17.3038 6.04612 17.0322 6.02393C16.7488 6.00078 16.3766 6 15.8 6H14V20Z" fill="#71747A"/>
</svg>
