<svg width="20" height="22" viewBox="0 0 20 22" fill="none" xmlns="http://www.w3.org/2000/svg">
<path fill-rule="evenodd" clip-rule="evenodd" d="M9.19708 0.639401C9.71783 0.46278 10.2823 0.46278 10.803 0.639401C11.0926 0.737606 11.3285 0.890956 11.5371 1.05141C11.7307 1.20039 11.9474 1.39303 12.1862 1.60529L18.1037 6.8653C18.1293 6.88803 18.1545 6.91045 18.1795 6.93258C18.6497 7.35018 19.0047 7.66545 19.274 8.04914C19.5659 8.46495 19.7759 8.93256 19.8928 9.42695C20.0006 9.88314 20.0004 10.358 20.0001 10.9869C20.0001 11.0202 20.0001 11.0539 20.0001 11.0882V18.708C20.0001 19.0644 20.0001 19.3852 19.98 19.6527C19.9586 19.9388 19.9102 20.2435 19.7704 20.5467C19.5212 21.0872 19.0873 21.5211 18.5467 21.7704C18.2436 21.9101 17.9388 21.9585 17.6528 21.98C17.3852 22 17.0645 22 16.7081 22H14.7921C14.4357 22 14.1149 22 13.8474 21.98C13.5613 21.9585 13.2565 21.9101 12.9534 21.7704C12.4128 21.5211 11.9789 21.0872 11.7297 20.5467C11.59 20.2436 11.5415 19.9388 11.5201 19.6528C11.5 19.3853 11.5 19.0647 11.5001 18.7084L11.5001 15C11.5001 14.7197 11.3855 14.3198 11.1302 14.0056C10.9002 13.7225 10.5529 13.5 10.0001 13.5C9.44721 13.5 9.09995 13.7225 8.86993 14.0056C8.61465 14.3198 8.50006 14.7197 8.50006 15L8.50006 18.7084C8.50008 19.0647 8.5001 19.3853 8.48004 19.6528C8.45859 19.9388 8.41015 20.2436 8.27042 20.5467C8.02121 21.0872 7.58729 21.5211 7.04671 21.7704C6.74358 21.9101 6.43881 21.9585 6.15277 21.98C5.88523 22 5.56447 22 5.20806 22H3.29206C2.93566 22 2.61489 22 2.34735 21.98C2.06131 21.9585 1.75654 21.9101 1.45341 21.7704C0.912833 21.5211 0.478914 21.0872 0.229704 20.5467C0.08996 20.2435 0.0415306 19.9388 0.020084 19.6527C2.47452e-05 19.3852 4.17925e-05 19.0644 6.06276e-05 18.708L6.18196e-05 11.0882C6.18196e-05 11.054 4.59648e-05 11.0202 3.03484e-05 10.9869C-0.000265291 10.358 -0.000488453 9.88315 0.107359 9.42695C0.224235 8.93256 0.43422 8.46495 0.726086 8.04914C0.995402 7.66545 1.35043 7.35017 1.82068 6.93257C1.84559 6.91044 1.87084 6.88803 1.89641 6.8653L7.81392 1.60528C8.05268 1.39303 8.26938 1.20039 8.46306 1.05141C8.67166 0.890956 8.90753 0.737606 9.19708 0.639401ZM10.1607 2.53343C10.0565 2.4981 9.94362 2.4981 9.83947 2.53343C9.83939 2.53346 9.83026 2.53632 9.80729 2.54972C9.78214 2.56438 9.74293 2.59016 9.68244 2.63669C9.55197 2.73704 9.38874 2.88135 9.11978 3.12043L3.22513 8.36012C2.64627 8.87466 2.4814 9.02959 2.36307 9.19817C2.21714 9.40608 2.11215 9.63988 2.05371 9.88708C2.00633 10.0875 2.00006 10.3137 2.00006 11.0882V18.675C2.00006 19.0748 2.00072 19.3195 2.01449 19.5032C2.0209 19.5888 2.02898 19.6409 2.03585 19.6729C2.03912 19.6881 2.04187 19.6975 2.04352 19.7026L2.04535 19.7078L2.04599 19.7093C2.09583 19.8174 2.18262 19.9042 2.29073 19.9541L2.29227 19.9547L2.29749 19.9565C2.30257 19.9582 2.31198 19.9609 2.3272 19.9642C2.35914 19.9711 2.4113 19.9792 2.49689 19.9856C2.68054 19.9993 2.92527 20 3.32506 20H5.17506C5.57485 20 5.81959 19.9993 6.00324 19.9856C6.08882 19.9792 6.14098 19.9711 6.17293 19.9642C6.18814 19.9609 6.19755 19.9582 6.20264 19.9565L6.20785 19.9547L6.20939 19.9541C6.31751 19.9042 6.40429 19.8174 6.45413 19.7093L6.45478 19.7078L6.45662 19.7026C6.45827 19.6975 6.46101 19.6881 6.46428 19.6729C6.47115 19.6409 6.47922 19.5888 6.48564 19.5033C6.49941 19.3197 6.50006 19.075 6.50006 18.6754V15C6.50006 14.2803 6.76047 13.4302 7.3177 12.7444C7.90017 12.0275 8.80291 11.5 10.0001 11.5C11.1972 11.5 12.1 12.0275 12.6824 12.7444C13.2397 13.4302 13.5001 14.2803 13.5001 15V18.6754C13.5001 19.075 13.5007 19.3197 13.5145 19.5033C13.5209 19.5888 13.529 19.6409 13.5358 19.6729C13.5391 19.6881 13.5419 19.6975 13.5435 19.7026L13.5453 19.7078L13.546 19.7093C13.5958 19.8174 13.6826 19.9042 13.7907 19.9541L13.7923 19.9547L13.7975 19.9565C13.8026 19.9582 13.812 19.9609 13.8272 19.9642C13.8591 19.9711 13.9113 19.9792 13.9969 19.9856C14.1805 19.9993 14.4253 20 14.8251 20H16.6751C17.0749 20 17.3196 19.9993 17.5032 19.9856C17.5888 19.9792 17.641 19.9711 17.6729 19.9642C17.6881 19.9609 17.6975 19.9582 17.7026 19.9565L17.7079 19.9547L17.7094 19.9541C17.8175 19.9042 17.9043 19.8174 17.9541 19.7093L17.9548 19.7078L17.9566 19.7026C17.9583 19.6975 17.961 19.6881 17.9643 19.6729C17.9711 19.6409 17.9792 19.5888 17.9856 19.5032C17.9994 19.3195 18.0001 19.0748 18.0001 18.675V11.0882C18.0001 10.3137 17.9938 10.0875 17.9464 9.88708C17.888 9.63988 17.783 9.40608 17.637 9.19817C17.5187 9.02959 17.3539 8.87466 16.775 8.36012L10.8803 3.12043C10.6114 2.88135 10.4482 2.73704 10.3177 2.63669C10.2572 2.59016 10.218 2.56438 10.1928 2.54972C10.1702 2.53652 10.161 2.53354 10.1607 2.53343Z" fill="#71747A"/>
</svg>
