<svg width="22" height="20" viewBox="0 0 22 20" fill="none" xmlns="http://www.w3.org/2000/svg">
<path fill-rule="evenodd" clip-rule="evenodd" d="M7 2C6.44772 2 6 2.44772 6 3V17C6 17.5523 6.44772 18 7 18H15C15.5523 18 16 17.5523 16 17V3C16 2.44772 15.5523 2 15 2H7ZM18 4.00007V15.9999C18.4651 15.9995 18.783 15.9964 19.0322 15.9761C19.3038 15.9539 19.4045 15.9162 19.454 15.891C19.6422 15.7951 19.7951 15.6422 19.891 15.454C19.9162 15.4045 19.9539 15.3038 19.9761 15.0322C19.9992 14.7488 20 14.3766 20 13.8V6.2C20 5.62345 19.9992 5.25117 19.9761 4.96784C19.9539 4.69617 19.9162 4.59545 19.891 4.54601C19.7951 4.35785 19.6422 4.20487 19.454 4.10899C19.4045 4.0838 19.3038 4.04612 19.0322 4.02393C18.783 4.00357 18.4651 4.00051 18 4.00007ZM17.8293 18H17.8386C18.3657 18 18.8205 18 19.195 17.9694C19.5904 17.9371 19.9836 17.8658 20.362 17.673C20.9265 17.3854 21.3854 16.9265 21.673 16.362C21.8658 15.9836 21.9371 15.5904 21.9694 15.195C22 14.8205 22 14.3657 22 13.8386V6.16143C22 5.63429 22 5.17954 21.9694 4.80497C21.9371 4.40963 21.8658 4.01641 21.673 3.63803C21.3854 3.07354 20.9265 2.6146 20.362 2.32698C19.9836 2.13419 19.5904 2.06287 19.195 2.03057C18.8205 1.99997 18.3657 1.99998 17.8385 2L17.8293 2C17.4175 0.834807 16.3062 0 15 0H7C5.69378 0 4.58254 0.834807 4.17071 2L4.16146 2C3.63431 1.99998 3.17955 1.99997 2.80497 2.03057C2.40963 2.06287 2.01641 2.13419 1.63803 2.32698C1.07354 2.6146 0.614602 3.07354 0.326982 3.63803C0.134188 4.01641 0.0628723 4.40963 0.0305712 4.80497C-3.25181e-05 5.17954 -1.70213e-05 5.63431 8.6011e-07 6.16146V13.8385C-1.70213e-05 14.3657 -3.25181e-05 14.8205 0.0305712 15.195C0.0628723 15.5904 0.134188 15.9836 0.326982 16.362C0.614602 16.9265 1.07354 17.3854 1.63803 17.673C2.01641 17.8658 2.40963 17.9371 2.80497 17.9694C3.17954 18 3.6343 18 4.16144 18H4.17071C4.58254 19.1652 5.69378 20 7 20H15C16.3062 20 17.4175 19.1652 17.8293 18ZM4 15.9999V4.00007C3.5349 4.00051 3.21698 4.00357 2.96784 4.02393C2.69617 4.04612 2.59546 4.0838 2.54601 4.10899C2.35785 4.20487 2.20487 4.35785 2.109 4.54601C2.0838 4.59545 2.04612 4.69617 2.02393 4.96784C2.00078 5.25117 2 5.62345 2 6.2V13.8C2 14.3766 2.00078 14.7488 2.02393 15.0322C2.04612 15.3038 2.0838 15.4045 2.109 15.454C2.20487 15.6422 2.35785 15.7951 2.54601 15.891C2.59546 15.9162 2.69617 15.9539 2.96784 15.9761C3.21698 15.9964 3.5349 15.9995 4 15.9999Z" fill="#71747A"/>
</svg>
