<svg width="22" height="18" viewBox="0 0 22 18" fill="none" xmlns="http://www.w3.org/2000/svg">
<path fill-rule="evenodd" clip-rule="evenodd" d="M11 0C11.3244 0 11.6286 0.157308 11.8161 0.421983L15.4929 5.61286L20.429 2.17909C20.7557 1.95183 21.186 1.93991 21.5248 2.14876C21.8636 2.3576 22.0463 2.74745 21.99 3.14142L19.99 17.1414C19.9196 17.6341 19.4977 18 19 18H3.00003C2.50238 18 2.08046 17.6341 2.01008 17.1414L0.0100813 3.14142C-0.0462008 2.74745 0.136488 2.3576 0.47526 2.14876C0.814033 1.93991 1.2444 1.95183 1.5711 2.17909L6.50713 5.61286L10.184 0.421983C10.3715 0.157308 10.6757 0 11 0ZM11 2.73005L7.56606 7.57802C7.24874 8.02599 6.62962 8.1344 6.17897 7.82091L2.31487 5.13284L3.86733 16H18.1327L19.6852 5.13284L15.8211 7.82091C15.3704 8.1344 14.7513 8.02599 14.434 7.57802L11 2.73005Z" fill="#71747A"/>
</svg>
