<svg width="20" height="23" viewBox="0 0 20 23" fill="none" xmlns="http://www.w3.org/2000/svg">
<path fill-rule="evenodd" clip-rule="evenodd" d="M11.2767 0.539158C11.5732 0.624638 11.8136 0.842162 11.9282 1.12861C12.7208 3.11021 14.1082 4.47507 15.5783 5.92116C15.7866 6.12611 15.9966 6.33269 16.2068 6.54289C17.8491 8.18523 19.4997 10.0649 19.4997 13C19.4997 18.5134 15.5901 22.75 9.9997 22.75C4.32324 22.75 0.636284 17.5005 0.500169 13.0304C0.430088 10.7289 1.27596 8.78464 2.10217 7.44593C2.51794 6.77225 2.93778 6.23697 3.25586 5.86775C3.41527 5.68271 3.55015 5.53818 3.64763 5.4376C3.69641 5.38727 3.73592 5.34785 3.76457 5.31976C3.7789 5.30572 3.79052 5.29449 3.79924 5.28615L3.81012 5.27579L3.81388 5.27224L3.81533 5.27087C3.81561 5.27061 3.8165 5.26978 4.4997 6.00001L3.8165 5.26978C4.08872 5.01509 4.48001 4.93296 4.83166 5.05671C5.18305 5.18037 5.43656 5.48909 5.48954 5.85777L5.49133 5.86974L5.49906 5.9188C5.50631 5.96357 5.51781 6.03181 5.53403 6.12014C5.56651 6.29699 5.61771 6.55324 5.69126 6.86214C5.83927 7.48379 6.07346 8.3002 6.41884 9.10609C6.77819 9.94456 7.20284 10.6523 7.69722 11.158C7.49437 10.4941 7.30599 9.71833 7.19574 8.88046C6.85747 6.30968 7.24984 2.99067 10.4115 0.691272C10.661 0.509811 10.9803 0.453677 11.2767 0.539158ZM10.3824 12.53C10.5473 12.8398 10.5378 13.2135 10.3572 13.5145C10.1765 13.8157 9.85097 14 9.4997 14C6.82801 14 5.34215 11.671 4.58055 9.89393C4.33159 9.313 4.13518 8.73606 3.98259 8.2172C3.9233 8.30678 3.86366 8.39987 3.80413 8.49632C3.09931 9.63836 2.44518 11.1941 2.49924 12.9696C2.61142 16.6535 5.67615 20.75 9.9997 20.75C14.4093 20.75 17.4997 17.4866 17.4997 13C17.4997 10.9351 16.4003 9.56477 14.7926 7.9571C14.6006 7.76511 14.4008 7.56953 14.196 7.36906C13.0064 6.20467 11.6477 4.87475 10.6668 3.11786C9.15693 4.73117 8.9348 6.76639 9.17865 8.61955C9.32199 9.70892 9.6251 10.6944 9.89618 11.4124C10.031 11.7695 10.156 12.0556 10.2459 12.2495C10.2908 12.3464 10.3267 12.42 10.3505 12.4676C10.3624 12.4914 10.3713 12.5087 10.3767 12.5191L10.3824 12.53Z" fill="#71747A"/>
</svg>
