<svg width="20" height="22" viewBox="0 0 20 22" fill="none" xmlns="http://www.w3.org/2000/svg">
<path fill-rule="evenodd" clip-rule="evenodd" d="M18 2.80424L12.6974 6.11838C12.6772 6.13098 12.6573 6.14343 12.6377 6.15572C12.2611 6.39127 11.9763 6.5694 11.6641 6.69808C11.3884 6.81174 11.1008 6.89421 10.8068 6.94396C10.4739 7.00027 10.138 7.00016 9.69381 7.00001C9.67063 7 9.64716 6.99999 9.62338 6.99999H5C3.13241 6.99999 2 8.46859 2 9.99999C2 11.5314 3.13241 13 5 13C5.55228 13 6 13.4477 6 14V19C6 19.5523 6.44772 20 7 20C7.55228 20 8 19.5523 8 19V14C8 13.4477 8.44772 13 9 13H9.62338C9.64716 13 9.67063 13 9.69381 13C10.138 12.9998 10.4739 12.9997 10.8068 13.056C11.1008 13.1058 11.3884 13.1882 11.6641 13.3019C11.9763 13.4306 12.2611 13.6087 12.6377 13.8443C12.6573 13.8566 12.6772 13.869 12.6974 13.8816L18 17.1957V2.80424ZM17.7957 0.592894C17.9599 0.510059 18.2558 0.377642 18.6202 0.40694C19.0512 0.441593 19.4464 0.660586 19.7042 1.00775C19.9222 1.30126 19.9667 1.6223 19.9835 1.80547C20.0001 1.98657 20.0001 2.20397 20 2.41V17.59C20.0001 17.796 20.0001 18.0134 19.9835 18.1945C19.9667 18.3777 19.9222 18.6987 19.7042 18.9922C19.4464 19.3394 19.0512 19.5584 18.6202 19.593C18.2558 19.6223 17.9599 19.4899 17.7957 19.4071C17.6333 19.3252 17.449 19.2099 17.2743 19.1007L11.6374 15.5776C11.1755 15.2889 11.0393 15.2076 10.9019 15.151C10.764 15.0941 10.6202 15.0529 10.4732 15.028C10.3679 15.0102 10.2564 15.0035 10 15.0012V19C10 20.6568 8.65685 22 7 22C5.34315 22 4 20.6568 4 19V14.9091C1.47425 14.4361 0 12.1933 0 9.99999C0 7.53139 1.86759 4.99999 5 4.99999H9.62338C10.1681 4.99999 10.3266 4.99678 10.4732 4.97198C10.6202 4.9471 10.764 4.90587 10.9019 4.84903C11.0393 4.79237 11.1755 4.71107 11.6374 4.42239L17.246 0.916993C17.2554 0.911115 17.2648 0.905213 17.2743 0.899293C17.449 0.790059 17.6333 0.674791 17.7957 0.592894Z" fill="#71747A"/>
</svg>
