<svg width="23" height="23" viewBox="0 0 23 23" fill="none" xmlns="http://www.w3.org/2000/svg">
<path fill-rule="evenodd" clip-rule="evenodd" d="M11 3.25C6.16751 3.25 2.25 7.16751 2.25 12C2.25 16.8325 6.16751 20.75 11 20.75C15.8325 20.75 19.75 16.8325 19.75 12C19.75 11.4477 20.1977 11 20.75 11C21.3023 11 21.75 11.4477 21.75 12C21.75 17.9371 16.9371 22.75 11 22.75C5.06294 22.75 0.25 17.9371 0.25 12C0.25 6.06294 5.06294 1.25 11 1.25C11.5523 1.25 12 1.69772 12 2.25C12 2.80228 11.5523 3.25 11 3.25Z" fill="#71747A"/>
<path fill-rule="evenodd" clip-rule="evenodd" d="M1.5 15.5C1.5 14.9477 1.94772 14.5 2.5 14.5H19.5C20.0523 14.5 20.5 14.9477 20.5 15.5C20.5 16.0523 20.0523 16.5 19.5 16.5H2.5C1.94772 16.5 1.5 16.0523 1.5 15.5Z" fill="#71747A"/>
<path fill-rule="evenodd" clip-rule="evenodd" d="M1.5 8.5C1.5 7.94772 1.94772 7.5 2.5 7.5H14.5C15.0523 7.5 15.5 7.94772 15.5 8.5C15.5 9.05229 15.0523 9.5 14.5 9.5H2.5C1.94772 9.5 1.5 9.05229 1.5 8.5Z" fill="#71747A"/>
<path fill-rule="evenodd" clip-rule="evenodd" d="M14.5356 7.51449C13.9913 7.60825 13.6261 8.12547 13.7198 8.66974C13.8908 9.66205 14 10.7752 14 12C14 14.8592 13.4046 17.1124 12.8167 18.641C12.5226 19.4056 12.2306 19.9883 12.0165 20.3737C11.9094 20.5663 11.822 20.7094 11.7638 20.801C11.7346 20.8468 11.7128 20.8796 11.6995 20.8993L11.686 20.919L11.6844 20.9214L11.6855 20.9199L11.686 20.919C11.3656 21.3684 11.4696 21.9928 11.9188 22.3137C12.3682 22.6347 12.9927 22.5306 13.3137 22.0812L12.5001 21.5001C13.3137 22.0812 13.3137 22.0812 13.3137 22.0812L13.3148 22.0798L13.316 22.078L13.3192 22.0735L13.3283 22.0605C13.3355 22.0501 13.345 22.0363 13.3567 22.0191C13.38 21.9846 13.4119 21.9364 13.4511 21.8747C13.5295 21.7515 13.6374 21.5742 13.7648 21.345C14.0194 20.8867 14.3524 20.2194 14.6833 19.359C15.3454 17.6375 16 15.1407 16 12C16 10.6558 15.8801 9.429 15.6908 8.33022C15.597 7.78595 15.0798 7.42074 14.5356 7.51449Z" fill="#71747A"/>
<path fill-rule="evenodd" clip-rule="evenodd" d="M10.0812 1.68628C10.5307 2.00729 10.6347 2.63184 10.3137 3.08125L9.5 2.50002C10.3137 3.08125 10.3137 3.08125 10.3137 3.08125L10.3145 3.08012L10.3151 3.07931L10.3137 3.08125L10.3005 3.10065C10.2872 3.12036 10.2654 3.15323 10.2362 3.199C10.178 3.29057 10.0906 3.43365 9.98353 3.62628C9.76941 4.0117 9.47741 4.59444 9.18335 5.359C8.59543 6.88757 8 9.14078 8 12C8 14.8593 8.59543 17.1125 9.18335 18.641C9.47741 19.4056 9.76941 19.9883 9.98353 20.3737C10.0906 20.5664 10.178 20.7095 10.2362 20.801C10.2654 20.8468 10.2872 20.8797 10.3005 20.8994L10.314 20.9191C10.6344 21.3684 10.5304 21.9929 10.0812 22.3138C9.63183 22.6348 9.00727 22.5307 8.68627 22.0813L9.49986 21.5001C8.68627 22.0813 8.68627 22.0813 8.68627 22.0813L8.68523 22.0798L8.68397 22.078L8.68076 22.0735L8.6717 22.0605C8.66449 22.0502 8.65499 22.0363 8.64334 22.0191C8.62004 21.9846 8.58815 21.9364 8.54892 21.8748C8.47047 21.7515 8.36257 21.5743 8.23522 21.345C7.98059 20.8867 7.64759 20.2194 7.31665 19.359C6.65457 17.6376 6 15.1408 6 12C6 8.85925 6.65457 6.36247 7.31665 4.64104C7.64759 3.78059 7.98059 3.11333 8.23522 2.655C8.36257 2.42576 8.47047 2.24853 8.54892 2.12525C8.58815 2.0636 8.62004 2.01541 8.64334 1.98093C8.65499 1.96369 8.66449 1.94987 8.6717 1.9395L8.68076 1.92654L8.68397 1.92201L8.68523 1.92023C8.68523 1.92023 8.68627 1.91878 9.5 2.50002L8.68627 1.91878C9.00727 1.46937 9.63183 1.36527 10.0812 1.68628Z" fill="#71747A"/>
<path d="M17.7275 1.86906C17.9565 1.01861 18.071 0.593383 18.2502 0.490023C18.4048 0.400868 18.5952 0.400868 18.7498 0.490023C18.929 0.593383 19.0435 1.01861 19.2725 1.86906L19.547 2.88852C19.5906 3.05057 19.6124 3.13159 19.6555 3.19783C19.6936 3.25644 19.7436 3.30641 19.8022 3.34451C19.8684 3.38758 19.9494 3.40939 20.1115 3.45302L21.1309 3.72751C21.9814 3.95649 22.4066 4.07098 22.51 4.25021C22.5991 4.4048 22.5991 4.5952 22.51 4.74979C22.4066 4.92902 21.9814 5.04351 21.1309 5.27249L20.1115 5.54698C19.9494 5.59061 19.8684 5.61242 19.8022 5.65549C19.7436 5.69359 19.6936 5.74356 19.6555 5.80217C19.6124 5.8684 19.5906 5.94943 19.547 6.11148L19.2725 7.13094C19.0435 7.98139 18.929 8.40662 18.7498 8.50998C18.5952 8.59913 18.4048 8.59913 18.2502 8.50998C18.071 8.40662 17.9565 7.98139 17.7275 7.13094L17.453 6.11148C17.4094 5.94943 17.3876 5.8684 17.3445 5.80217C17.3064 5.74356 17.2564 5.69359 17.1978 5.65549C17.1316 5.61242 17.0506 5.59061 16.8885 5.54698L15.8691 5.27249C15.0186 5.04351 14.5934 4.92902 14.49 4.74979C14.4009 4.5952 14.4009 4.4048 14.49 4.25021C14.5934 4.07098 15.0186 3.95649 15.8691 3.72751L16.8885 3.45302C17.0506 3.40939 17.1316 3.38758 17.1978 3.34451C17.2564 3.30641 17.3064 3.25644 17.3445 3.19783C17.3876 3.13159 17.4094 3.05057 17.453 2.88852L17.7275 1.86906Z" fill="#71747A"/>
</svg>
