<svg width="24" height="22" viewBox="0 0 24 22" fill="none" xmlns="http://www.w3.org/2000/svg">
<path fill-rule="evenodd" clip-rule="evenodd" d="M10.2326 1.20982C10.983 -0.212474 13.02 -0.212478 13.7704 1.20982L16.3243 6.05032L21.7171 6.98341C23.3017 7.25758 23.9311 9.19485 22.8103 10.348L18.9959 14.2727L19.775 19.6899C20.0039 21.2817 18.3559 22.479 16.9128 21.7694L12.0015 19.3545L7.09022 21.7694C5.64713 22.479 3.99918 21.2817 4.22809 19.6899L5.00713 14.2727L1.19273 10.3481C0.0719407 9.19486 0.701394 7.25758 2.28597 6.98341L7.67876 6.05032L10.2326 1.20982ZM14.5554 6.9836L12.0015 2.1431L9.44765 6.9836C9.15826 7.53209 8.63081 7.91531 8.01974 8.02104L2.62695 8.95413L6.44135 12.8788C6.87357 13.3235 7.07504 13.9436 6.98677 14.5574L6.20772 19.9746L11.119 17.5597C11.6756 17.2861 12.3275 17.2861 12.884 17.5597L17.7953 19.9746L17.0163 14.5574C16.928 13.9436 17.1295 13.3235 17.5617 12.8788L21.3761 8.95413L15.9833 8.02104C15.3723 7.91531 14.8448 7.53209 14.5554 6.9836Z" fill="#71747A"/>
</svg>
