<svg width="40" height="40" viewBox="0 0 40 40" fill="none" xmlns="http://www.w3.org/2000/svg">
<g clip-path="url(#clip0_6020_21)">
<path d="M0 12.8C0 8.31958 0 6.07937 0.871948 4.36808C1.63893 2.86278 2.86278 1.63893 4.36808 0.871948C6.07937 0 8.31958 0 12.8 0H30L40 10V27.2C40 31.6804 40 33.9206 39.1281 35.6319C38.3611 37.1372 37.1372 38.3611 35.6319 39.1281C33.9206 40 31.6804 40 27.2 40H12.8C8.31958 40 6.07937 40 4.36808 39.1281C2.86278 38.3611 1.63893 37.1372 0.871948 35.6319C0 33.9206 0 31.6804 0 27.2V12.8Z" fill="#248BF2"/>
<path d="M10.8689 26.3V28.15H14.1089V29.45H10.8689V32H9.24895V25H14.5389V26.3H10.8689ZM15.8857 25H17.5057V32H15.8857V25ZM19.4169 25H21.0369V30.68H24.5469V32H19.4169V25ZM31.1221 30.7V32H25.7021V25H30.9921V26.3H27.3121V27.82H30.5621V29.08H27.3121V30.7H31.1221Z" fill="white"/>
<path opacity="0.08" d="M40 10V20L30 10H40Z" fill="black"/>
<path opacity="0.24" d="M30 10V0L40 10H30Z" fill="white"/>
</g>
<defs>
<clipPath id="clip0_6020_21">
<rect width="40" height="40" fill="white"/>
</clipPath>
</defs>
</svg>
