<svg width="85" height="156" viewBox="0 0 85 156" fill="none" xmlns="http://www.w3.org/2000/svg">
<mask id="path-1-outside-1_412_8" maskUnits="userSpaceOnUse" x="0.309998" y="0.31366" width="85" height="156" fill="black">
<rect fill="white" x="0.309998" y="0.31366" width="85" height="156"/>
<path fill-rule="evenodd" clip-rule="evenodd" d="M74.63 152.38C75.5506 153.222 76.7526 153.689 78 153.69C79.3261 153.69 80.5979 153.163 81.5355 152.226C82.4732 151.288 83 150.016 83 148.69V7.31001C82.9993 6.3409 82.717 5.39289 82.1874 4.58128C81.6578 3.76968 80.9037 3.12948 80.017 2.73854C79.1302 2.3476 78.149 2.22279 77.1926 2.37928C76.2362 2.53578 75.3459 2.96683 74.63 3.62001L26.06 48H7.31C5.98392 48 4.71215 48.5268 3.77446 49.4645C2.83678 50.4022 2.31 51.6739 2.31 53V103C2.31 104.326 2.83678 105.598 3.77446 106.536C4.71215 107.473 5.98392 108 7.31 108H26.06L74.63 152.38Z"/>
</mask>
<path fill-rule="evenodd" clip-rule="evenodd" d="M74.63 152.38C75.5506 153.222 76.7526 153.689 78 153.69C79.3261 153.69 80.5979 153.163 81.5355 152.226C82.4732 151.288 83 150.016 83 148.69V7.31001C82.9993 6.3409 82.717 5.39289 82.1874 4.58128C81.6578 3.76968 80.9037 3.12948 80.017 2.73854C79.1302 2.3476 78.149 2.22279 77.1926 2.37928C76.2362 2.53578 75.3459 2.96683 74.63 3.62001L26.06 48H7.31C5.98392 48 4.71215 48.5268 3.77446 49.4645C2.83678 50.4022 2.31 51.6739 2.31 53V103C2.31 104.326 2.83678 105.598 3.77446 106.536C4.71215 107.473 5.98392 108 7.31 108H26.06L74.63 152.38Z" fill="#F5F5F5"/>
<path d="M78 153.69L77.9984 155.69H78V153.69ZM74.63 152.38L75.9796 150.904L75.9791 150.904L74.63 152.38ZM83 7.31001L85 7.31001L85 7.30854L83 7.31001ZM77.1926 2.37928L76.8696 0.405532L77.1926 2.37928ZM74.63 3.62001L73.282 2.14254L73.2809 2.14354L74.63 3.62001ZM26.06 48V50H26.8361L27.4091 49.4765L26.06 48ZM26.06 108L27.4091 106.524L26.8361 106H26.06V108ZM78.0016 151.69C77.2532 151.689 76.532 151.409 75.9796 150.904L73.2804 153.856C74.5692 155.034 76.252 155.689 77.9984 155.69L78.0016 151.69ZM80.1213 150.811C79.5587 151.374 78.7957 151.69 78 151.69V155.69C79.8565 155.69 81.637 154.953 82.9498 153.64L80.1213 150.811ZM81 148.69C81 149.486 80.6839 150.249 80.1213 150.811L82.9498 153.64C84.2625 152.327 85 150.547 85 148.69H81ZM81 7.31001V148.69H85V7.31001H81ZM80.5124 5.67424C80.8302 6.16119 80.9996 6.73 81 7.31147L85 7.30854C84.999 5.9518 84.6038 4.62458 83.8623 3.48833L80.5124 5.67424ZM79.2102 4.56859C79.7422 4.80315 80.1947 5.18728 80.5124 5.67424L83.8623 3.48833C83.1209 2.35209 82.0652 1.4558 80.8238 0.908491L79.2102 4.56859ZM77.5156 4.35304C78.0894 4.25914 78.6781 4.33403 79.2102 4.56859L80.8238 0.908491C79.5823 0.361183 78.2086 0.186442 76.8696 0.405532L77.5156 4.35304ZM75.978 5.09747C76.4075 4.70556 76.9417 4.44693 77.5156 4.35304L76.8696 0.405532C75.5307 0.624622 74.2843 1.2281 73.282 2.14254L75.978 5.09747ZM27.4091 49.4765L75.9791 5.09647L73.2809 2.14354L24.7109 46.5235L27.4091 49.4765ZM7.31 50H26.06V46H7.31V50ZM5.18868 50.8787C5.75128 50.3161 6.51434 50 7.31 50V46C5.45349 46 3.67301 46.7375 2.36025 48.0503L5.18868 50.8787ZM4.31 53C4.31 52.2044 4.62607 51.4413 5.18868 50.8787L2.36025 48.0503C1.0475 49.363 0.309998 51.1435 0.309998 53H4.31ZM4.31 103V53H0.309998V103H4.31ZM5.18868 105.121C4.62607 104.559 4.31 103.796 4.31 103H0.309998C0.309998 104.857 1.04749 106.637 2.36025 107.95L5.18868 105.121ZM7.31 106C6.51434 106 5.75128 105.684 5.18868 105.121L2.36025 107.95C3.67301 109.263 5.45349 110 7.31 110V106ZM26.06 106H7.31V110H26.06V106ZM75.9791 150.904L27.4091 106.524L24.7109 109.476L73.2809 153.856L75.9791 150.904Z" fill="black" mask="url(#path-1-outside-1_412_8)"/>
</svg>
