<svg width="20" height="23" viewBox="0 0 20 23" fill="none" xmlns="http://www.w3.org/2000/svg">
<path fill-rule="evenodd" clip-rule="evenodd" d="M2.86922 8.11078L8.87963 2.10038C11.4366 -0.456626 15.2534 -0.0111717 17.3649 2.10038C19.4765 4.21193 19.9219 8.02863 17.3649 10.5857L11.3545 16.596C9.85815 18.0924 7.63243 17.8237 6.40475 16.5961C5.17709 15.3684 4.90841 13.1427 6.40475 11.6463L10.2938 7.75723C10.6844 7.36671 11.3175 7.36671 11.7081 7.75723C12.0986 8.14775 12.0986 8.78092 11.7081 9.17144L7.81897 13.0605C7.19399 13.6855 7.27886 14.6418 7.81896 15.1819C8.35905 15.7219 9.31528 15.8068 9.94026 15.1818L15.9507 9.17145C17.6363 7.48579 17.3747 4.93857 15.9507 3.51459C14.5267 2.09061 11.9795 1.82895 10.2938 3.51459L4.28343 9.525C1.52261 12.2858 1.81417 16.2481 4.28343 18.7174C6.75269 21.1866 10.715 21.4782 13.4758 18.7174L17.3649 14.8283C17.7554 14.4378 18.3886 14.4378 18.7791 14.8283C19.1696 15.2188 19.1696 15.852 18.7791 16.2425L14.89 20.1316C11.2869 23.7347 6.05681 23.3192 2.86922 20.1316C-0.318374 16.944 -0.733926 11.7139 2.86922 8.11078Z" fill="#71747A"/>
</svg>
