<svg width="20" height="23" viewBox="0 0 20 23" fill="none" xmlns="http://www.w3.org/2000/svg">
<path fill-rule="evenodd" clip-rule="evenodd" d="M5.75877 4.31291e-07H14.2414C15.0463 -1.23241e-05 15.7107 -2.28137e-05 16.2519 0.0441945C16.814 0.0901197 17.3307 0.188684 17.816 0.435975C18.5687 0.819468 19.1806 1.43139 19.5641 2.18404C19.8114 2.66937 19.91 3.18608 19.9559 3.74817C20.0001 4.28936 20.0001 4.95372 20.0001 5.75868V11.2413C20.0001 12.0463 20.0001 12.7106 19.9559 13.2518C19.91 13.8139 19.8114 14.3306 19.5641 14.816C19.1806 15.5686 18.5687 16.1805 17.816 16.564C17.3307 16.8113 16.814 16.9099 16.2519 16.9558C15.7107 17 15.0464 17 14.2414 17H12.0862C11.9699 17 11.9122 17.0002 11.8702 17.0019L11.8671 17.0021L11.8647 17.0039C11.8316 17.0297 11.7874 17.0668 11.6986 17.142L6.30439 21.7063C6.2982 21.7115 6.29187 21.7169 6.28542 21.7224C6.19831 21.7962 6.08784 21.8897 5.98599 21.9612C5.89432 22.0256 5.63595 22.2034 5.2755 22.2107C4.89007 22.2186 4.52259 22.0481 4.27961 21.7488C4.05238 21.4689 4.02121 21.1568 4.01112 21.0453C3.99992 20.9214 4 20.7766 4.00006 20.6624C4.00007 20.6539 4.00007 20.6457 4.00007 20.6376V16.9938C3.65873 16.9839 3.36554 16.959 3.09588 16.8965C1.60932 16.5515 0.448572 15.3908 0.103609 13.9042C-0.000534065 13.4554 -0.000291356 12.9415 3.58735e-05 12.2488C5.44702e-05 12.2095 7.33052e-05 12.1696 7.33052e-05 12.129L7.28284e-05 5.7587C6.0073e-05 4.95373 4.95836e-05 4.28937 0.0442669 3.74817C0.0901921 3.18608 0.188756 2.66937 0.436047 2.18404C0.819541 1.43139 1.43146 0.819468 2.18411 0.435975C2.66945 0.188684 3.18615 0.0901197 3.74825 0.0441945C4.28944 -2.28137e-05 4.9538 -1.23241e-05 5.75877 4.31291e-07ZM3.91111 2.03755C3.4727 2.07337 3.24849 2.1383 3.09209 2.21799C2.71577 2.40973 2.40981 2.7157 2.21806 3.09202C2.13837 3.24842 2.07344 3.47262 2.03762 3.91104C2.00085 4.36113 2.00007 4.94342 2.00007 5.8V12.129C2.00007 12.9945 2.0066 13.2571 2.05184 13.4521C2.22432 14.1954 2.8047 14.7758 3.54798 14.9482C3.74294 14.9935 4.00554 15 4.87104 15L4.87294 15C4.88206 15 4.91256 14.9999 4.94251 15.0011C4.97969 15.0026 5.05609 15.007 5.14873 15.0285C5.55753 15.1233 5.87674 15.4425 5.9716 15.8513C5.9931 15.944 5.99748 16.0204 5.99896 16.0576C6.00015 16.0875 6.00009 16.118 6.00008 16.1271L6.00007 16.129V19.3439L10.4067 15.6152C10.4179 15.6057 10.4294 15.596 10.4412 15.586C10.5698 15.4766 10.7318 15.3389 10.9223 15.2368C11.0877 15.1483 11.2647 15.0834 11.4481 15.0442C11.6595 14.999 11.8721 14.9995 12.041 14.9999C12.0564 15 12.0715 15 12.0862 15H14.2001C15.0567 15 15.6389 14.9992 16.089 14.9624C16.5275 14.9266 16.7517 14.8617 16.9081 14.782C17.2844 14.5903 17.5903 14.2843 17.7821 13.908C17.8618 13.7516 17.9267 13.5274 17.9625 13.089C17.9993 12.6389 18.0001 12.0566 18.0001 11.2V5.8C18.0001 4.94342 17.9993 4.36113 17.9625 3.91104C17.9267 3.47262 17.8618 3.24842 17.7821 3.09202C17.5903 2.7157 17.2844 2.40973 16.9081 2.21799C16.7517 2.1383 16.5275 2.07337 16.089 2.03755C15.6389 2.00078 15.0567 2 14.2001 2H5.80007C4.94349 2 4.3612 2.00078 3.91111 2.03755Z" fill="#71747A"/>
</svg>
