<svg width="22" height="22" viewBox="0 0 22 22" fill="none" xmlns="http://www.w3.org/2000/svg">
<path fill-rule="evenodd" clip-rule="evenodd" d="M11 0.5C8.37665 0.5 6.25 2.62665 6.25 5.25C6.25 7.87335 8.37665 10 11 10C13.6234 10 15.75 7.87335 15.75 5.25C15.75 2.62665 13.6234 0.5 11 0.5ZM8.25 5.25C8.25 3.73122 9.48122 2.5 11 2.5C12.5188 2.5 13.75 3.73122 13.75 5.25C13.75 6.76878 12.5188 8 11 8C9.48122 8 8.25 6.76878 8.25 5.25Z" fill="#71747A"/>
<path d="M0.5 18.5C0.5 16.2774 3.13498 12 11 12C11.5523 12 12 12.4477 12 13C12 13.5523 11.5523 14 11 14C3.86502 14 2.5 17.7226 2.5 18.5C2.5 19.0228 2.66989 19.3807 2.89461 19.6054C3.11933 19.8301 3.47725 20 4 20H10C10.5523 20 11 20.4477 11 21C11 21.5523 10.5523 22 10 22H4C3.02275 22 2.13067 21.6699 1.48039 21.0196C0.830114 20.3693 0.5 19.4772 0.5 18.5Z" fill="#71747A"/>
<path d="M17.5 13C18.0523 13 18.5 13.4477 18.5 14V16.5H21C21.5523 16.5 22 16.9477 22 17.5C22 18.0523 21.5523 18.5 21 18.5H18.5V21C18.5 21.5523 18.0523 22 17.5 22C16.9477 22 16.5 21.5523 16.5 21V18.5H14C13.4477 18.5 13 18.0523 13 17.5C13 16.9477 13.4477 16.5 14 16.5H16.5V14C16.5 13.4477 16.9477 13 17.5 13Z" fill="#71747A"/>
</svg>
