<svg width="20" height="20" viewBox="0 0 20 20" fill="none" xmlns="http://www.w3.org/2000/svg">
<g clip-path="url(#clip0_7734_555)">
<path fill-rule="evenodd" clip-rule="evenodd" d="M10 1.875C10.4602 1.875 10.8333 2.2481 10.8333 2.70833V9.16667H17.2917C17.7519 9.16667 18.125 9.53976 18.125 10C18.125 10.4602 17.7519 10.8333 17.2917 10.8333H10.8333V17.2917C10.8333 17.7519 10.4602 18.125 10 18.125C9.53976 18.125 9.16667 17.7519 9.16667 17.2917V10.8333H2.70833C2.2481 10.8333 1.875 10.4602 1.875 10C1.875 9.53976 2.2481 9.16667 2.70833 9.16667H9.16667V2.70833C9.16667 2.2481 9.53976 1.875 10 1.875Z" fill="white"/>
</g>
<defs>
<clipPath id="clip0_7734_555">
<rect width="20" height="20" fill="white"/>
</clipPath>
</defs>
</svg>
