<svg width="22" height="22" viewBox="0 0 22 22" fill="none" xmlns="http://www.w3.org/2000/svg">
<path fill-rule="evenodd" clip-rule="evenodd" d="M14.6383 19.5933C16.5032 19.703 18.0086 18.8419 19.3084 17.5422C19.6989 17.1516 19.6989 16.5185 19.3084 16.1279L16.9882 13.8078C16.5122 13.3318 15.7405 13.3318 15.2645 13.8078C14.2728 14.7996 12.6475 15.3932 11.1642 14.5565C10.525 14.196 9.78838 13.679 9.0553 12.946C8.32223 12.2129 7.80528 11.4762 7.44473 10.8371C6.60803 9.35376 7.20171 7.72849 8.19348 6.73672C8.66945 6.26075 8.66945 5.48905 8.19348 5.01308L5.87332 2.69292C5.4828 2.30239 4.84963 2.30239 4.45911 2.69292C3.15935 3.99268 2.29828 5.49803 2.40799 7.36297C2.51996 9.26648 3.65483 11.7881 6.93398 15.0673C10.2131 18.3464 12.7348 19.4813 14.6383 19.5933ZM14.5209 21.5898C11.9166 21.4366 8.95813 19.9199 5.51977 16.4815C2.08141 13.0431 0.564631 10.0847 0.411438 7.48042C0.255975 4.83756 1.51623 2.80737 3.0449 1.2787C4.21647 0.107131 6.11596 0.107131 7.28754 1.2787L9.60769 3.59886C10.8647 4.85588 10.8647 6.89391 9.6077 8.15093C9.02574 8.73289 8.92995 9.39928 9.1867 9.85444C9.46826 10.3536 9.87863 10.9409 10.4695 11.5318C11.0604 12.1226 11.6477 12.533 12.1468 12.8146C12.602 13.0713 13.2684 12.9755 13.8503 12.3936C15.1074 11.1366 17.1454 11.1366 18.4024 12.3936L20.7226 14.7137C21.8941 15.8853 21.8941 17.7848 20.7226 18.9564C19.1939 20.485 17.1637 21.7453 14.5209 21.5898Z" fill="#71747A"/>
</svg>
