<svg width="18" height="18" viewBox="0 0 18 18" fill="none" xmlns="http://www.w3.org/2000/svg">
<path d="M11.5 7.74959C12.1904 7.74959 12.75 7.18995 12.75 6.49959C12.75 5.80924 12.1904 5.24959 11.5 5.24959C10.8096 5.24959 10.25 5.80924 10.25 6.49959C10.25 7.18995 10.8096 7.74959 11.5 7.74959Z" fill="#71747A"/>
<path d="M7.75 6.5C7.75 7.19036 7.19036 7.75 6.5 7.75C5.80964 7.75 5.25 7.19036 5.25 6.5C5.25 5.80964 5.80964 5.25 6.5 5.25C7.19036 5.25 7.75 5.80964 7.75 6.5Z" fill="#71747A"/>
<path fill-rule="evenodd" clip-rule="evenodd" d="M5.25 0.25C2.48857 0.25 0.249988 2.48859 0.25 5.25002L0.250032 12.75C0.250044 15.5114 2.48862 17.75 5.25003 17.75L8.58333 17.7504C8.59925 17.7504 8.61514 17.7503 8.63099 17.75H10.0477C10.9318 17.75 11.7797 17.3987 12.4048 16.7736L16.7734 12.4048C17.3984 11.7797 17.7496 10.9319 17.7496 10.0478V8.62598C17.7498 8.61193 17.7499 8.59785 17.7499 8.58374L17.7496 5.25C17.7496 2.48858 15.511 0.25 12.7496 0.25H5.25ZM16.0829 8.60812V5.25C16.0829 3.40905 14.5905 1.91667 12.7496 1.91667H5.25C3.40905 1.91667 1.91666 3.40906 1.91667 5.25001L1.9167 12.75C1.91671 14.5909 3.40909 16.0833 5.25003 16.0833H8.61083C9.05834 16.0688 9.41667 15.7014 9.41667 15.2504L9.41667 14.414C9.41693 13.9772 9.47319 13.5536 9.57866 13.1498C9.40033 13.1607 9.20784 13.1667 9.00005 13.1667C7.72877 13.1667 6.72694 12.6576 6.06199 12.174C5.72791 11.931 5.46965 11.6881 5.29292 11.5037C5.20422 11.4112 5.13505 11.3323 5.08618 11.2741C5.06172 11.2449 5.04226 11.2208 5.02789 11.2027L5.01014 11.18L5.00414 11.1721L5.00185 11.1691L5.00089 11.1678C4.99965 11.1662 5.00005 11.1667 5.00005 11.1667C4.72391 10.7985 4.79853 10.2762 5.16672 10C5.53375 9.72478 6.05395 9.79806 6.33077 10.1632L6.33463 10.1682C6.33959 10.1744 6.34902 10.1862 6.36281 10.2026C6.39043 10.2355 6.43521 10.2869 6.49624 10.3505C6.61899 10.4786 6.80344 10.6524 7.04227 10.8261C7.52316 11.1758 8.18799 11.5 9.00005 11.5C9.76642 11.5 10.1947 11.404 10.4032 11.3345C10.4511 11.3185 10.4872 11.304 10.5129 11.2926C11.4237 10.1562 12.8203 9.42599 14.3879 9.41716C14.3974 9.41683 14.407 9.41667 14.4167 9.41667H15.2762C15.7162 9.40303 16.0703 9.04834 16.0829 8.60812ZM11.0833 15.7225C11.1331 15.683 11.1809 15.6405 11.2263 15.5951L15.5948 11.2263C15.6402 11.1809 15.6827 11.1332 15.7222 11.0833H15.2955C15.2804 11.0836 15.2652 11.0837 15.2499 11.0837H14.4167C13.331 11.0837 12.3666 11.6028 11.758 12.4062C11.7529 12.4131 11.7477 12.42 11.7425 12.4268C11.3284 12.9823 11.0833 13.671 11.0833 14.4171V15.7225Z" fill="#71747A"/>
</svg>
