<svg width="64" height="56" viewBox="0 0 64 56" fill="none" xmlns="http://www.w3.org/2000/svg">
<g clip-path="url(#clip0_16774_46021)">
<path fill-rule="evenodd" clip-rule="evenodd" d="M36.2413 18H27.7587C26.9537 18 26.2894 18 25.7482 18.0442C25.1861 18.0901 24.6694 18.1887 24.184 18.436C23.4314 18.8195 22.8195 19.4314 22.436 20.184C22.1887 20.6694 22.0901 21.1861 22.0442 21.7482C22 22.2894 22 22.9537 22 23.7587V32.2413C22 33.0463 22 33.7106 22.0442 34.2518C22.0901 34.8139 22.1887 35.3306 22.436 35.816C22.8195 36.5686 23.4314 37.1805 24.184 37.564C24.6694 37.8113 25.1861 37.9099 25.7482 37.9558C26.2894 38 26.9537 38 27.7587 38H36.2413C37.0463 38 37.7106 38 38.2518 37.9558C38.8139 37.9099 39.3306 37.8113 39.816 37.564C40.5686 37.1805 41.1805 36.5686 41.564 35.816C41.8113 35.3306 41.9099 34.8139 41.9558 34.2518C42 33.7106 42 33.0463 42 32.2413V23.7587C42 22.9537 42 22.2894 41.9558 21.7482C41.9099 21.1861 41.8113 20.6694 41.564 20.184C41.1805 19.4314 40.5686 18.8195 39.816 18.436C39.3306 18.1887 38.8139 18.0901 38.2518 18.0442C37.7106 18 37.0463 18 36.2413 18ZM25.092 20.218C25.2484 20.1383 25.4726 20.0734 25.911 20.0376C26.3611 20.0008 26.9434 20 27.8 20H36.2C37.0566 20 37.6389 20.0008 38.089 20.0376C38.5274 20.0734 38.7516 20.1383 38.908 20.218C39.2843 20.4097 39.5903 20.7157 39.782 21.092C39.8617 21.2484 39.9266 21.4726 39.9624 21.911C39.9992 22.3611 40 22.9434 40 23.8V32.2C40 33.0566 39.9992 33.6389 39.9624 34.089C39.9266 34.5274 39.8617 34.7516 39.782 34.908C39.5903 35.2843 39.2843 35.5903 38.908 35.782C38.7516 35.8617 38.5274 35.9266 38.089 35.9624C37.6389 35.9992 37.0566 36 36.2 36H27.8C26.9434 36 26.3611 35.9992 25.911 35.9624C25.4726 35.9266 25.2484 35.8617 25.092 35.782C24.7157 35.5903 24.4097 35.2843 24.218 34.908C24.1383 34.7516 24.0734 34.5274 24.0376 34.089C24.0008 33.6389 24 33.0566 24 32.2V23.8C24 22.9434 24.0008 22.3611 24.0376 21.911C24.0734 21.4726 24.1383 21.2484 24.218 21.092C24.4097 20.7157 24.7157 20.4097 25.092 20.218ZM28 32C27.4477 32 27 32.4477 27 33C27 33.5523 27.4477 34 28 34H36C36.5523 34 37 33.5523 37 33C37 32.4477 36.5523 32 36 32H28ZM38 28.5C38 29.3284 37.3284 30 36.5 30C35.6716 30 35 29.3284 35 28.5C35 27.6716 35.6716 27 36.5 27C37.3284 27 38 27.6716 38 28.5ZM32 30C32.8284 30 33.5 29.3284 33.5 28.5C33.5 27.6716 32.8284 27 32 27C31.1716 27 30.5 27.6716 30.5 28.5C30.5 29.3284 31.1716 30 32 30ZM29 28.5C29 29.3284 28.3284 30 27.5 30C26.6716 30 26 29.3284 26 28.5C26 27.6716 26.6716 27 27.5 27C28.3284 27 29 27.6716 29 28.5ZM36.5 25C37.3284 25 38 24.3284 38 23.5C38 22.6716 37.3284 22 36.5 22C35.6716 22 35 22.6716 35 23.5C35 24.3284 35.6716 25 36.5 25ZM33.5 23.5C33.5 24.3284 32.8284 25 32 25C31.1716 25 30.5 24.3284 30.5 23.5C30.5 22.6716 31.1716 22 32 22C32.8284 22 33.5 22.6716 33.5 23.5ZM27.5 25C28.3284 25 29 24.3284 29 23.5C29 22.6716 28.3284 22 27.5 22C26.6716 22 26 22.6716 26 23.5C26 24.3284 26.6716 25 27.5 25Z" fill="#71747A"/>
</g>
<defs>
<clipPath id="clip0_16774_46021">
<rect width="24" height="24" fill="white" transform="translate(20 16)"/>
</clipPath>
</defs>
</svg>
