<svg width="24" height="24" viewBox="0 0 24 24" fill="none" xmlns="http://www.w3.org/2000/svg">
<g clip-path="url(#clip0_17454_14067)">
<path fill-rule="evenodd" clip-rule="evenodd" d="M16.3516 1.55679C17.0867 1.25231 17.9126 1.25231 18.6477 1.55679C18.9736 1.6918 19.2419 1.89007 19.4911 2.10738C19.7277 2.31377 19.9953 2.5814 20.3054 2.89157L21.1081 3.69419C21.4183 4.00435 21.6859 4.27198 21.8923 4.5086C22.1096 4.75774 22.3079 5.02602 22.4429 5.35195C22.7474 6.08704 22.7474 6.91297 22.4429 7.64805C22.3079 7.97398 22.1096 8.24227 21.8923 8.49141C21.6859 8.72803 21.4182 8.99566 21.1081 9.30583L9.54668 20.8672C9.5391 20.8748 9.53133 20.8826 9.52337 20.8906C9.43609 20.9782 9.32627 21.0884 9.198 21.182C9.03064 21.3041 8.84533 21.3994 8.6487 21.4646C8.49797 21.5146 8.34446 21.5399 8.22245 21.56C8.21133 21.5619 8.20048 21.5637 8.18991 21.5654L5.73597 21.9744C5.30141 22.0469 4.92132 22.1102 4.60785 22.1385C4.28315 22.1678 3.9233 22.1718 3.56155 22.0559C2.79269 21.8095 2.19015 21.207 1.94376 20.4381C1.82783 20.0764 1.83187 19.7165 1.86117 19.3918C1.88945 19.0783 1.95282 18.6982 2.02526 18.2637L2.43425 15.8098C2.43601 15.7992 2.4378 15.7883 2.43963 15.7772C2.45975 15.6552 2.48506 15.5017 2.53504 15.351C2.60025 15.1543 2.69561 14.969 2.81772 14.8017C2.91131 14.6734 3.02152 14.5636 3.1091 14.4763C3.11709 14.4683 3.12489 14.4606 3.13247 14.453L14.6938 2.89162C15.004 2.58143 15.2716 2.31378 15.5083 2.10738C15.7574 1.89007 16.0257 1.6918 16.3516 1.55679ZM17.8824 3.40455C17.6373 3.30306 17.362 3.30306 17.117 3.40455C17.0754 3.42179 16.9952 3.46437 16.8229 3.61458C16.6439 3.77072 16.4246 3.98928 16.0855 4.32843L15.4139 5L18.9997 8.58579L19.6712 7.91422C20.0104 7.57507 20.2289 7.35574 20.3851 7.17674C20.5353 7.00452 20.5779 6.9243 20.5951 6.88269C20.6966 6.63766 20.6966 6.36235 20.5951 6.11732C20.5779 6.07571 20.5353 5.99549 20.3851 5.82327C20.229 5.64426 20.0104 5.42494 19.6712 5.08579L18.9139 4.32843C18.5747 3.98928 18.3554 3.77072 18.1764 3.61458C18.0042 3.46437 17.924 3.42179 17.8824 3.40455ZM17.5855 10L13.9997 6.41422L4.54668 15.8672C4.48654 15.9273 4.45693 15.9571 4.43598 15.9794C4.43543 15.98 4.43491 15.9805 4.43441 15.981C4.43427 15.9818 4.43412 15.9825 4.43397 15.9833C4.42802 16.0133 4.42102 16.0547 4.40704 16.1386L4.00392 18.5573C3.9239 19.0374 3.87376 19.3423 3.85308 19.5715C3.83626 19.7579 3.84734 19.8217 3.84898 19.8297C3.89844 19.9819 4.01777 20.1012 4.16997 20.1507C4.17797 20.1523 4.24181 20.1634 4.42814 20.1466C4.65741 20.1259 4.96229 20.0758 5.44241 19.9958L7.86111 19.5926C7.94501 19.5787 7.98639 19.5716 8.01639 19.5657C8.01717 19.5656 8.01792 19.5654 8.01863 19.5653C8.01917 19.5648 8.01972 19.5642 8.0203 19.5637C8.04257 19.5427 8.07232 19.5131 8.13247 19.453L17.5855 10Z" fill="#71747A"/>
</g>
<defs>
<clipPath id="clip0_17454_14067">
<rect width="24" height="24" fill="white"/>
</clipPath>
</defs>
</svg>
