<svg width="36" height="36" viewBox="0 0 36 36" fill="none" xmlns="http://www.w3.org/2000/svg">
<path d="M7.57143 22.5714V21.5714H6.57143H2H1V22.5714V34V35H2H13.4286H14.4286V34V29.4286V28.4286H13.4286H7.57143V22.5714ZM1 13.4286V14.4286H2H6.57143H7.57143V13.4286V7.57143H13.4286H14.4286V6.57143V2V1H13.4286H2H1V2V13.4286ZM28.4286 22.5714V28.4286H22.5714H21.5714V29.4286V34V35H22.5714H34H35V34V22.5714V21.5714H34H29.4286H28.4286V22.5714ZM22.5714 1H21.5714V2V6.57143V7.57143H22.5714H28.4286V13.4286V14.4286H29.4286H34H35V13.4286V2V1H34H22.5714Z" fill="#F5F5F5" stroke="black" stroke-width="2"/>
</svg>
