<svg width="22" height="22" viewBox="0 0 22 22" fill="none" xmlns="http://www.w3.org/2000/svg">
<path d="M10.2924 3.22185C9.90189 3.61237 9.90189 4.24554 10.2924 4.63606C10.6829 5.02658 11.3161 5.02658 11.7066 4.63606L12.9441 3.39862C14.5062 1.83653 17.0388 1.83653 18.6009 3.39862C20.163 4.96072 20.163 7.49338 18.6009 9.05548L15.4189 12.2375C13.8568 13.7996 11.3242 13.7996 9.76209 12.2375C9.37156 11.8469 8.7384 11.8469 8.34787 12.2375C7.95735 12.628 7.95735 13.2611 8.34787 13.6517C10.691 15.9948 14.49 15.9948 16.8332 13.6517L20.0151 10.4697C22.3583 8.12655 22.3583 4.32756 20.0151 1.98441C17.672 -0.358736 13.873 -0.358736 11.5299 1.98441L10.2924 3.22185Z" fill="#71747A"/>
<path d="M1.98392 11.5303C-0.359224 13.8735 -0.359224 17.6725 1.98392 20.0156C4.32707 22.3588 8.12606 22.3588 10.4692 20.0156L11.7066 18.7782C12.0972 18.3877 12.0972 17.7545 11.7066 17.364C11.3161 16.9734 10.683 16.9734 10.2924 17.364L9.05499 18.6014C7.49289 20.1635 4.96023 20.1635 3.39814 18.6014C1.83604 17.0393 1.83604 14.5067 3.39814 12.9446L6.58012 9.76258C8.14221 8.20048 10.6749 8.20048 12.237 9.76258C12.6275 10.1531 13.2607 10.1531 13.6512 9.76258C14.0417 9.37205 14.0417 8.73889 13.6512 8.34836C11.308 6.00522 7.50905 6.00522 5.1659 8.34836L1.98392 11.5303Z" fill="#71747A"/>
</svg>
