<svg width="22" height="22" viewBox="0 0 22 22" fill="none" xmlns="http://www.w3.org/2000/svg">
<path fill-rule="evenodd" clip-rule="evenodd" d="M6.25 5.25012C6.25 2.62677 8.37665 0.500122 11 0.500122C13.6234 0.500122 15.75 2.62677 15.75 5.25012C15.75 7.87347 13.6234 10.0001 11 10.0001C8.37665 10.0001 6.25 7.87347 6.25 5.25012ZM11 2.50012C9.48122 2.50012 8.25 3.73134 8.25 5.25012C8.25 6.76891 9.48122 8.00012 11 8.00012C12.5188 8.00012 13.75 6.76891 13.75 5.25012C13.75 3.73134 12.5188 2.50012 11 2.50012Z" fill="#71747A"/>
<path d="M0.5 18.5001C0.5 16.2776 3.13498 12.0001 11 12.0001C11.5523 12.0001 12 12.4478 12 13.0001C12 13.5524 11.5523 14.0001 11 14.0001C3.86502 14.0001 2.5 17.7227 2.5 18.5001C2.5 19.0229 2.66989 19.3808 2.89461 19.6055C3.11933 19.8302 3.47725 20.0001 4 20.0001H10C10.5523 20.0001 11 20.4478 11 21.0001C11 21.5524 10.5523 22.0001 10 22.0001H4C3.02275 22.0001 2.13067 21.67 1.48039 21.0197C0.830114 20.3694 0.5 19.4774 0.5 18.5001Z" fill="#71747A"/>
<path d="M21.7071 14.293C22.0976 14.6835 22.0976 15.3167 21.7071 15.7072L19.4142 18.0001L21.7071 20.293C22.0976 20.6835 22.0976 21.3167 21.7071 21.7072C21.3166 22.0978 20.6834 22.0978 20.2929 21.7072L18 19.4143L15.7071 21.7072C15.3166 22.0978 14.6834 22.0978 14.2929 21.7072C13.9024 21.3167 13.9024 20.6835 14.2929 20.293L16.5858 18.0001L14.2929 15.7072C13.9024 15.3167 13.9024 14.6835 14.2929 14.293C14.6834 13.9025 15.3166 13.9025 15.7071 14.293L18 16.5859L20.2929 14.293C20.6834 13.9025 21.3166 13.9025 21.7071 14.293Z" fill="#71747A"/>
</svg>
