<svg width="116" height="156" viewBox="0 0 116 156" fill="none" xmlns="http://www.w3.org/2000/svg">
<mask id="path-1-outside-1_412_8" maskUnits="userSpaceOnUse" x="9.31" y="0.31366" width="85" height="156" fill="black">
<rect fill="white" x="9.31" y="0.31366" width="85" height="156"/>
<path fill-rule="evenodd" clip-rule="evenodd" d="M83.63 152.38C84.5506 153.222 85.7526 153.689 87 153.69C88.3261 153.69 89.5979 153.163 90.5355 152.226C91.4732 151.288 92 150.016 92 148.69V7.31001C91.9993 6.3409 91.717 5.39289 91.1874 4.58128C90.6578 3.76968 89.9037 3.12948 89.017 2.73854C88.1302 2.3476 87.149 2.22279 86.1926 2.37928C85.2362 2.53578 84.3459 2.96683 83.63 3.62001L35.06 48H16.31C14.9839 48 13.7121 48.5268 12.7745 49.4645C11.8368 50.4022 11.31 51.6739 11.31 53V103C11.31 104.326 11.8368 105.598 12.7745 106.536C13.7121 107.473 14.9839 108 16.31 108H35.06L83.63 152.38Z"/>
</mask>
<path fill-rule="evenodd" clip-rule="evenodd" d="M83.63 152.38C84.5506 153.222 85.7526 153.689 87 153.69C88.3261 153.69 89.5979 153.163 90.5355 152.226C91.4732 151.288 92 150.016 92 148.69V7.31001C91.9993 6.3409 91.717 5.39289 91.1874 4.58128C90.6578 3.76968 89.9037 3.12948 89.017 2.73854C88.1302 2.3476 87.149 2.22279 86.1926 2.37928C85.2362 2.53578 84.3459 2.96683 83.63 3.62001L35.06 48H16.31C14.9839 48 13.7121 48.5268 12.7745 49.4645C11.8368 50.4022 11.31 51.6739 11.31 53V103C11.31 104.326 11.8368 105.598 12.7745 106.536C13.7121 107.473 14.9839 108 16.31 108H35.06L83.63 152.38Z" fill="#F5F5F5"/>
<path d="M87 153.69L86.9984 155.69H87V153.69ZM83.63 152.38L84.9796 150.904L84.9791 150.904L83.63 152.38ZM92 7.31001L94 7.31001L94 7.30854L92 7.31001ZM86.1926 2.37928L85.8696 0.405532L86.1926 2.37928ZM83.63 3.62001L82.282 2.14254L82.2809 2.14354L83.63 3.62001ZM35.06 48V50H35.8361L36.4091 49.4765L35.06 48ZM35.06 108L36.4091 106.524L35.8361 106H35.06V108ZM87.0016 151.69C86.2532 151.689 85.532 151.409 84.9796 150.904L82.2804 153.856C83.5692 155.034 85.252 155.689 86.9984 155.69L87.0016 151.69ZM89.1213 150.811C88.5587 151.374 87.7957 151.69 87 151.69V155.69C88.8565 155.69 90.637 154.953 91.9498 153.64L89.1213 150.811ZM90 148.69C90 149.486 89.6839 150.249 89.1213 150.811L91.9498 153.64C93.2625 152.327 94 150.547 94 148.69H90ZM90 7.31001V148.69H94V7.31001H90ZM89.5124 5.67424C89.8302 6.16119 89.9996 6.73 90 7.31147L94 7.30854C93.999 5.9518 93.6038 4.62458 92.8623 3.48833L89.5124 5.67424ZM88.2102 4.56859C88.7422 4.80315 89.1947 5.18728 89.5124 5.67424L92.8623 3.48833C92.1209 2.35209 91.0652 1.4558 89.8238 0.908491L88.2102 4.56859ZM86.5156 4.35304C87.0894 4.25914 87.6781 4.33403 88.2102 4.56859L89.8238 0.908491C88.5823 0.361183 87.2086 0.186442 85.8696 0.405532L86.5156 4.35304ZM84.978 5.09747C85.4075 4.70556 85.9417 4.44693 86.5156 4.35304L85.8696 0.405532C84.5307 0.624622 83.2843 1.2281 82.282 2.14254L84.978 5.09747ZM36.4091 49.4765L84.9791 5.09647L82.2809 2.14354L33.7109 46.5235L36.4091 49.4765ZM16.31 50H35.06V46H16.31V50ZM14.1887 50.8787C14.7513 50.3161 15.5143 50 16.31 50V46C14.4535 46 12.673 46.7375 11.3602 48.0503L14.1887 50.8787ZM13.31 53C13.31 52.2044 13.6261 51.4413 14.1887 50.8787L11.3602 48.0503C10.0475 49.363 9.31 51.1435 9.31 53H13.31ZM13.31 103V53H9.31V103H13.31ZM14.1887 105.121C13.6261 104.559 13.31 103.796 13.31 103H9.31C9.31 104.857 10.0475 106.637 11.3602 107.95L14.1887 105.121ZM16.31 106C15.5143 106 14.7513 105.684 14.1887 105.121L11.3602 107.95C12.673 109.263 14.4535 110 16.31 110V106ZM35.06 106H16.31V110H35.06V106ZM84.9791 150.904L36.4091 106.524L33.7109 109.476L82.2809 153.856L84.9791 150.904Z" fill="black" mask="url(#path-1-outside-1_412_8)"/>
<rect x="-0.412841" y="29.7502" width="7" height="152" rx="3.5" transform="rotate(-47.5248 -0.412841 29.7502)" fill="#F5F5F5" stroke="#231F20" stroke-width="2"/>
</svg>
