<svg width="24" height="15" viewBox="0 0 24 15" fill="none" xmlns="http://www.w3.org/2000/svg">
<path d="M1.88646 0C0.663639 0 -0.267493 1.17844 0.0697385 2.33709C0.947782 5.35731 2.2494 8.31481 4.19226 10.6401C6.13511 12.9655 8.76277 14.651 12.123 14.9854C13.2414 15.0966 14.2061 14.203 14.2061 13.1193V10.9555C14.2061 10.8205 14.3002 10.7246 14.4075 10.7216C14.4273 10.7211 14.4432 10.7206 14.4533 10.7206C14.8392 10.7206 15.6321 11.1944 16.3286 11.9309C17.0251 12.6674 17.6411 13.5791 17.9375 14.0842V14.0852C18.2729 14.6556 18.8978 15 19.5625 15H22.221C23.545 15.001 24.431 13.5351 23.783 12.3997C22.7657 10.6165 20.7362 8.85273 19.7212 7.97306C21.5808 5.97172 22.8137 3.79067 23.36 2.3444C23.7723 1.25169 22.9222 0.0219298 21.7234 0.0219298H19.8257C19.0007 0.0219298 18.2317 0.415841 17.9173 1.04637C16.4404 4.01252 15.1239 5.10194 14.1965 5.88659V1.86195C14.1965 0.857876 13.3464 0.0300711 12.3254 0.0281955L9.00204 0.0229741C7.94374 0.0216909 7.28751 1.3027 7.9216 2.13346L8.56304 2.97515L8.56411 2.97723C8.67405 3.11972 8.73246 3.29045 8.73246 3.46596V3.467L8.74525 6.82331C7.42341 5.45705 5.98733 2.56295 5.554 1.27193V1.27089C5.30092 0.516739 4.57286 0.00753437 3.76924 0.00522139H3.76818L1.88753 0H1.88646ZM1.88646 1.60401L3.76498 1.60923C3.88045 1.6095 3.96537 1.67056 3.9994 1.77214C4.53747 3.37574 5.95119 6.43113 7.74366 8.14223C8.20912 8.58666 8.8923 8.67676 9.42186 8.46596C9.95142 8.25516 10.383 7.70886 10.383 7.06767V7.06662L10.3691 3.46596C10.3691 2.94156 10.1939 2.43158 9.87258 2.01337L9.87151 2.01128L9.57849 1.62803L12.3222 1.63221C12.4655 1.63248 12.5598 1.72396 12.5598 1.86195V5.92732C12.5598 7.2291 14.2327 7.97706 15.2386 7.12615H15.2396C16.1616 6.3456 17.7932 4.95249 19.3877 1.75021C19.4247 1.67604 19.3925 1.62594 19.8257 1.62594H21.7234C21.8338 1.62594 21.8662 1.67751 21.8246 1.7878C21.3604 3.0166 20.1761 5.15945 18.4202 7.01337C17.879 7.58486 17.9011 8.52912 18.5129 9.06015C19.4721 9.89161 21.5654 11.7994 22.3541 13.1819C22.4263 13.3084 22.3721 13.3961 22.222 13.396H19.5625C19.471 13.396 19.3957 13.3522 19.3558 13.2843C19.0013 12.6804 18.3513 11.7097 17.5294 10.8406C16.7075 9.97154 15.7291 9.11654 14.4533 9.11654C14.4171 9.11654 14.3875 9.11702 14.3648 9.11759H14.3627H14.3616C13.3462 9.14563 12.5694 9.99018 12.5694 10.9555V13.1193C12.5694 13.2855 12.4386 13.4047 12.2881 13.3897C9.38378 13.1007 7.1947 11.7025 5.4581 9.62406C3.7215 7.54559 2.48123 4.77892 1.64352 1.89745C1.59668 1.73654 1.6974 1.60401 1.88646 1.60401Z" fill="#71747A"/>
</svg>
