<svg width="17" height="22" viewBox="0 0 17 22" fill="none" xmlns="http://www.w3.org/2000/svg">
<path fill-rule="evenodd" clip-rule="evenodd" d="M13.6213 2.38625C12.4785 2.00534 10.8281 1.77812 8.81623 2.44875C6.40233 3.25339 4.36893 3.25936 2.92108 3.05252C2.58025 3.00383 2.27237 2.94344 2 2.87915V12.9005C2.29883 13.0373 2.7368 13.2071 3.29412 13.3398C4.45089 13.6152 6.13395 13.7346 8.18377 13.0514C10.634 12.2346 12.7009 12.3652 14.1691 12.7148C14.4728 12.7871 14.7503 12.8686 15 12.9527V3.02291C14.9827 3.01229 14.9649 3.00143 14.9464 2.99037C14.6463 2.81028 14.197 2.57814 13.6213 2.38625ZM15.3638 3.27161C15.3645 3.27216 15.3645 3.27219 15.3638 3.27161V3.27161ZM16 2.50007L16.6402 1.73185C16.8682 1.92184 17 2.20329 17 2.50007V14.5001C17 14.8689 16.797 15.2077 16.4719 15.3817C16.1484 15.5548 15.7564 15.5369 15.4502 15.3354C15.4486 15.3343 15.4469 15.3332 15.4453 15.3321L16 14.5001C15.4453 15.3321 15.4449 15.3319 15.4453 15.3321L15.4469 15.3332L15.4481 15.334L15.4502 15.3354L15.4389 15.3282C15.4257 15.3201 15.4017 15.3055 15.3672 15.2859C15.2981 15.2465 15.1874 15.1869 15.038 15.1172C14.7389 14.9776 14.2873 14.7988 13.7059 14.6604C12.5491 14.3849 10.866 14.2655 8.81623 14.9487C6.36605 15.7655 4.29911 15.6349 2.83088 15.2854C2.52723 15.2131 2.24968 15.1316 2 15.0474V21.0001C2 21.5524 1.55228 22.0001 1 22.0001C0.447715 22.0001 0 21.5524 0 21.0001V1.50007C0 1.15349 0.179453 0.831624 0.47427 0.649418C0.767411 0.468247 1.13304 0.450842 1.44192 0.603017L1.45294 0.608169C1.46594 0.614155 1.48989 0.624918 1.52442 0.6394C1.59352 0.668377 1.70477 0.712151 1.85529 0.762326C2.1565 0.862729 2.61354 0.988282 3.20392 1.07262C4.38107 1.24079 6.09767 1.24676 8.18377 0.551387C10.6719 -0.277996 12.7715 -0.00521123 14.2537 0.488882C14.9905 0.734488 15.5725 1.03361 15.9754 1.27539C16.1773 1.39649 16.3354 1.5039 16.4468 1.58421C16.5026 1.62439 16.5468 1.65788 16.5792 1.68301C16.5953 1.69558 16.6085 1.70607 16.6187 1.71427L16.6317 1.72485L16.6365 1.7288L16.6385 1.73044L16.6394 1.73117C16.6398 1.73152 16.6402 1.73185 16 2.50007Z" fill="#71747A"/>
</svg>
