<svg width="481" height="481" viewBox="0 0 481 481" fill="none" xmlns="http://www.w3.org/2000/svg">
<g clip-path="url(#clip0_410_2)">
<circle cx="240.5" cy="240.5" r="240.5" fill="#398FE5"/>
<path d="M347.4 229.072L194.8 131.172C190.6 128.472 185.4 128.272 181 130.672C176.7 133.072 174 137.572 174 142.472V338.172C174 343.072 176.7 347.672 181 349.972C183 351.072 185.3 351.672 187.5 351.672C190 351.672 192.6 350.972 194.8 349.572L347.4 251.672C351.3 249.172 353.6 244.872 353.6 240.272C353.6 235.672 351.2 231.572 347.4 229.072ZM201 313.672V167.272L315.1 240.472L201 313.672Z" fill="white"/>
</g>
<defs>
<clipPath id="clip0_410_2">
<rect width="481" height="481" fill="white"/>
</clipPath>
</defs>
</svg>
