<svg width="20" height="23" viewBox="0 0 20 23" fill="none" xmlns="http://www.w3.org/2000/svg">
<path fill-rule="evenodd" clip-rule="evenodd" d="M10.0001 6C7.51484 6 5.50012 8.01472 5.50012 10.5C5.50012 12.9853 7.51484 15 10.0001 15C12.4854 15 14.5001 12.9853 14.5001 10.5C14.5001 8.01472 12.4854 6 10.0001 6ZM7.50012 10.5C7.50012 9.11929 8.61941 8 10.0001 8C11.3808 8 12.5001 9.11929 12.5001 10.5C12.5001 11.8807 11.3808 13 10.0001 13C8.61941 13 7.50012 11.8807 7.50012 10.5Z" fill="#71747A"/>
<path fill-rule="evenodd" clip-rule="evenodd" d="M10 0.5C4.47109 0.5 0 5.00926 0 10.5581C0 17.5466 6.05965 21.2173 8.47443 22.4129L8.50122 22.4262C8.78622 22.5674 9.04123 22.6938 9.45141 22.7701C9.63142 22.8036 9.83697 22.813 10 22.813C10.163 22.813 10.3686 22.8036 10.5486 22.7701C10.9588 22.6938 11.2138 22.5674 11.4988 22.4262L11.5256 22.4129C13.9403 21.2173 20 17.5466 20 10.5581C20 5.00926 15.5289 0.5 10 0.5ZM2 10.5581C2 6.10167 5.58778 2.5 10 2.5C14.4122 2.5 18 6.10167 18 10.5581C18 16.2715 13.0068 19.4478 10.6381 20.6206C10.3432 20.7666 10.3057 20.7809 10.1829 20.8038C10.1837 20.8036 10.1839 20.8037 10.1829 20.8038C10.1791 20.8043 10.162 20.8066 10.13 20.8088C10.0929 20.8114 10.0479 20.813 10 20.813C9.95208 20.813 9.90712 20.8114 9.86996 20.8088C9.83804 20.8066 9.8211 20.8043 9.81736 20.8038C9.81637 20.8037 9.81652 20.8036 9.81736 20.8038C9.69449 20.7809 9.65678 20.7666 9.36187 20.6206C6.99325 19.4478 2 16.2715 2 10.5581Z" fill="#71747A"/>
</svg>
