<svg width="47" height="47" viewBox="0 0 47 47" fill="none" xmlns="http://www.w3.org/2000/svg">
<path d="M1 35.7857V36.7857H2H10.2143V45V46H11.2143H17.3571H18.3571V45V29.6429V28.6429H17.3571H2H1V29.6429V35.7857ZM10.2143 2V10.2143H2H1V11.2143V17.3571V18.3571H2H17.3571H18.3571V17.3571V2V1H17.3571H11.2143H10.2143V2ZM28.6429 45V46H29.6429H35.7857H36.7857V45V36.7857H45H46V35.7857V29.6429V28.6429H45H29.6429H28.6429V29.6429V45ZM45 10.2143H36.7857V2V1H35.7857H29.6429H28.6429V2V17.3571V18.3571H29.6429H45H46V17.3571V11.2143V10.2143H45Z" fill="#F5F5F5" stroke="black" stroke-width="2"/>
</svg>
