<svg width="22" height="22" viewBox="0 0 22 22" fill="none" xmlns="http://www.w3.org/2000/svg">
<path d="M11 9.5C11.5523 9.5 12 9.94771 12 10.5V16C12 16.5523 11.5523 17 11 17C10.4477 17 10 16.5523 10 16V10.5C10 9.94771 10.4477 9.5 11 9.5Z" fill="black"/>
<path d="M11 7.5C11.6904 7.5 12.25 6.94036 12.25 6.25C12.25 5.55964 11.6904 5 11 5C10.3096 5 9.75 5.55964 9.75 6.25C9.75 6.94036 10.3096 7.5 11 7.5Z" fill="black"/>
<path fill-rule="evenodd" clip-rule="evenodd" d="M0.25 11C0.25 5.06294 5.06294 0.25 11 0.25C16.9371 0.25 21.75 5.06294 21.75 11C21.75 16.9371 16.9371 21.75 11 21.75C5.06294 21.75 0.25 16.9371 0.25 11ZM11 2.25C6.16751 2.25 2.25 6.16751 2.25 11C2.25 15.8325 6.16751 19.75 11 19.75C15.8325 19.75 19.75 15.8325 19.75 11C19.75 6.16751 15.8325 2.25 11 2.25Z" fill="black"/>
</svg>
