<svg width="24" height="22" viewBox="0 0 24 22" fill="none" xmlns="http://www.w3.org/2000/svg">
<path fill-rule="evenodd" clip-rule="evenodd" d="M18.0751 4.0229C15.9294 2.61125 12.9387 2.02394 10.1641 2.48637C4.80467 3.3796 1.63146 8.73305 3.44836 14.1837C4.35267 16.8967 6.14076 18.4379 7.77229 19.1449C8.59663 19.5021 9.35642 19.6357 9.92091 19.6177C10.4421 19.601 10.6279 19.47 10.6634 19.445C10.6709 19.4398 10.6717 19.4392 10.6676 19.4453C10.7868 19.2665 10.7955 19.1531 10.7854 19.0479C10.7702 18.8876 10.7065 18.7095 10.5712 18.3714L10.5556 18.3324C10.4402 18.0449 10.2681 17.6156 10.2229 17.1417C10.1705 16.5906 10.2868 16.0165 10.6676 15.4453C11.0027 14.9426 11.5503 14.7369 11.9396 14.6332C12.3619 14.5208 12.8557 14.4649 13.3399 14.4252C13.6444 14.4002 13.9538 14.3806 14.2681 14.3606C15.0159 14.3131 15.7913 14.2639 16.5937 14.1372C17.7138 13.9603 18.7181 13.651 19.4842 13.0859C20.2147 12.547 20.7996 11.7243 21.0113 10.3479C21.4418 7.5496 20.182 5.40907 18.0751 4.0229ZM19.1743 2.35207C21.8173 4.09091 23.5575 6.95037 22.988 10.652C22.6998 12.5257 21.8472 13.828 20.6714 14.6953C19.5312 15.5365 18.1605 15.9146 16.9056 16.1127C16.0051 16.2549 15.0755 16.3141 14.298 16.3636L14.2979 16.3636L14.2976 16.3636C14.0088 16.382 13.7409 16.399 13.5032 16.4185C13.0343 16.4569 12.6922 16.5026 12.4543 16.5659C12.3723 16.5877 12.3209 16.607 12.2915 16.6198C12.2106 16.7621 12.2052 16.8602 12.2139 16.952C12.2292 17.1124 12.2929 17.2905 12.4282 17.6286L12.4438 17.6676C12.5591 17.9551 12.7313 18.3843 12.7764 18.8583C12.8289 19.4093 12.7125 19.9835 12.3317 20.5547C11.8083 21.3398 10.823 21.5899 9.9847 21.6166C9.08044 21.6455 8.02773 21.4353 6.97707 20.98C4.8586 20.062 2.64668 18.1033 1.551 14.8162C-0.632107 8.26689 3.19469 1.62034 9.83528 0.513584C13.0607 -0.0239769 16.57 0.638718 19.1743 2.35207ZM18.9997 9C18.9997 9.82843 18.3281 10.5 17.4997 10.5C16.6712 10.5 15.9997 9.82843 15.9997 9C15.9997 8.17157 16.6712 7.5 17.4997 7.5C18.3281 7.5 18.9997 8.17157 18.9997 9ZM13.4997 7.75C14.3281 7.75 14.9997 7.07843 14.9997 6.25C14.9997 5.42157 14.3281 4.75 13.4997 4.75C12.6712 4.75 11.9997 5.42157 11.9997 6.25C11.9997 7.07843 12.6712 7.75 13.4997 7.75ZM10.4997 7.5C10.4997 8.32843 9.8281 9 8.99968 9C8.17125 9 7.49968 8.32843 7.49968 7.5C7.49968 6.67157 8.17125 6 8.99968 6C9.8281 6 10.4997 6.67157 10.4997 7.5ZM6.99968 13.25C7.8281 13.25 8.49968 12.5784 8.49968 11.75C8.49968 10.9216 7.8281 10.25 6.99968 10.25C6.17125 10.25 5.49968 10.9216 5.49968 11.75C5.49968 12.5784 6.17125 13.25 6.99968 13.25Z" fill="#71747A"/>
</svg>
