<svg width="21" height="21" viewBox="0 0 21 21" fill="none" xmlns="http://www.w3.org/2000/svg">
<path fill-rule="evenodd" clip-rule="evenodd" d="M12.0786 2.55739L12.5574 2.07861C12.9302 1.70585 13.2517 1.38427 13.5382 1.14105C13.8406 0.884341 14.1691 0.656721 14.573 0.525493C15.1755 0.329719 15.8245 0.329719 16.4271 0.525493C16.8309 0.656721 17.1594 0.884341 17.4618 1.14105C17.7483 1.38428 18.0699 1.70586 18.4426 2.07863L18.9214 2.55737C19.2941 2.93012 19.6157 3.25168 19.8589 3.53818C20.1157 3.84058 20.3433 4.16905 20.4745 4.57293C20.6703 5.17546 20.6703 5.8245 20.4745 6.42703C20.3433 6.83091 20.1157 7.15939 19.8589 7.46178C19.6157 7.74828 19.2941 8.06984 18.9214 8.44257L18.9214 8.44259L18.4426 8.92133L18.4426 8.92135L18.4425 8.92146C18.0698 9.29418 17.7483 9.61571 17.4618 9.85891C17.1594 10.1156 16.8309 10.3432 16.4271 10.4745C15.8245 10.6702 15.1755 10.6702 14.573 10.4745C14.1691 10.3432 13.8406 10.1156 13.5382 9.85891C13.2517 9.61569 12.9302 9.29411 12.5574 8.92135L12.0786 8.44258C11.7059 8.06984 11.3843 7.74828 11.1411 7.46178C10.8844 7.15939 10.6568 6.83091 10.5255 6.42703C10.3297 5.8245 10.3297 5.17546 10.5255 4.57293C10.6568 4.16905 10.8844 3.84057 11.1411 3.53818C11.3843 3.25169 11.7059 2.93014 12.0786 2.55742L12.0786 2.55741L12.0786 2.55739ZM12.6658 4.83254C12.4894 5.04033 12.4448 5.13819 12.4276 5.19097C12.3624 5.39181 12.3624 5.60816 12.4276 5.809C12.4448 5.86178 12.4894 5.95964 12.6658 6.16743C12.8497 6.38415 13.1124 6.64793 13.5201 7.05562L13.9444 7.47988C14.3521 7.88757 14.6158 8.15025 14.8326 8.33423C15.0404 8.51063 15.1382 8.55521 15.191 8.57236C15.3918 8.63762 15.6082 8.63762 15.809 8.57236C15.8618 8.55521 15.9597 8.51063 16.1675 8.33423C16.3842 8.15025 16.648 7.88757 17.0556 7.47988L17.4799 7.05562C17.8876 6.64793 18.1503 6.38415 18.3343 6.16743C18.5107 5.95964 18.5552 5.86178 18.5724 5.809C18.6376 5.60816 18.6376 5.39181 18.5724 5.19097C18.5552 5.13819 18.5107 5.04033 18.3343 4.83254C18.1503 4.61582 17.8876 4.35203 17.4799 3.94435L17.0556 3.52008C16.648 3.1124 16.3842 2.84971 16.1675 2.66573C15.9597 2.48933 15.8618 2.44475 15.809 2.42761C15.6082 2.36235 15.3918 2.36235 15.191 2.42761C15.1382 2.44475 15.0404 2.48933 14.8326 2.66573C14.6158 2.84971 14.3521 3.1124 13.9444 3.52008L13.5201 3.94435C13.1124 4.35203 12.8497 4.61582 12.6658 4.83254ZM4.83855 12H4.16146C3.63431 12 3.17955 12 2.80497 12.0306C2.40963 12.0629 2.01641 12.1342 1.63803 12.327C1.07354 12.6146 0.614603 13.0735 0.326983 13.638C0.134189 14.0164 0.062873 14.4096 0.030572 14.805C-3.10596e-05 15.1795 -1.63023e-05 15.6343 8.04846e-07 16.1614V16.1614V16.8385V16.8386C-1.63023e-05 17.3657 -3.10596e-05 17.8204 0.030572 18.195C0.062873 18.5904 0.134189 18.9836 0.326983 19.362C0.614603 19.9264 1.07354 20.3854 1.63803 20.673C2.01641 20.8658 2.40963 20.9371 2.80497 20.9694C3.17955 21 3.63432 21 4.16148 21H4.83852C5.36568 21 5.82045 21 6.19503 20.9694C6.59038 20.9371 6.98359 20.8658 7.36197 20.673C7.92646 20.3854 8.3854 19.9264 8.67302 19.362C8.86582 18.9836 8.93713 18.5904 8.96943 18.195C9.00004 17.8204 9.00002 17.3657 9 16.8385V16.1615C9.00002 15.6343 9.00004 15.1795 8.96943 14.805C8.93713 14.4096 8.86582 14.0164 8.67302 13.638C8.3854 13.0735 7.92646 12.6146 7.36197 12.327C6.98359 12.1342 6.59038 12.0629 6.19503 12.0306C5.82046 12 5.3657 12 4.83855 12ZM2.54601 14.109C2.59546 14.0838 2.69618 14.0461 2.96784 14.0239C3.25118 14.0008 3.62345 14 4.2 14H4.8C5.37656 14 5.74883 14.0008 6.03217 14.0239C6.30383 14.0461 6.40455 14.0838 6.45399 14.109C6.64216 14.2049 6.79514 14.3578 6.89101 14.546C6.9162 14.5954 6.95388 14.6962 6.97608 14.9678C6.99923 15.2512 7 15.6234 7 16.2V16.8C7 17.3765 6.99923 17.7488 6.97608 18.0321C6.95388 18.3038 6.9162 18.4045 6.89101 18.454C6.79514 18.6421 6.64216 18.7951 6.45399 18.891C6.40455 18.9162 6.30383 18.9539 6.03217 18.9761C5.74883 18.9992 5.37656 19 4.8 19H4.2C3.62345 19 3.25118 18.9992 2.96784 18.9761C2.69618 18.9539 2.59546 18.9162 2.54601 18.891C2.35785 18.7951 2.20487 18.6421 2.109 18.454C2.0838 18.4045 2.04613 18.3038 2.02393 18.0321C2.00078 17.7488 2 17.3765 2 16.8V16.2C2 15.6234 2.00078 15.2512 2.02393 14.9678C2.04613 14.6962 2.0838 14.5954 2.109 14.546C2.20487 14.3578 2.35785 14.2049 2.54601 14.109ZM15.8385 12H15.1615C14.6343 12 14.1795 12 13.805 12.0306C13.4096 12.0629 13.0164 12.1342 12.638 12.327C12.0735 12.6146 11.6146 13.0735 11.327 13.638C11.1342 14.0164 11.0629 14.4096 11.0306 14.805C11 15.1795 11 15.6343 11 16.1614V16.8385C11 17.3657 11 17.8204 11.0306 18.195C11.0629 18.5904 11.1342 18.9836 11.327 19.362C11.6146 19.9264 12.0735 20.3854 12.638 20.673C13.0164 20.8658 13.4096 20.9371 13.805 20.9694C14.1796 21 14.6343 21 15.1615 21H15.8385C16.3657 21 16.8205 21 17.195 20.9694C17.5904 20.9371 17.9836 20.8658 18.362 20.673C18.9265 20.3854 19.3854 19.9264 19.673 19.362C19.8658 18.9836 19.9371 18.5904 19.9694 18.195C20 17.8205 20 17.3658 20 16.8387V16.8386V16.8386V16.8385V16.1615V16.1613V16.1613V16.1613C20 15.6342 20 15.1795 19.9694 14.805C19.9371 14.4096 19.8658 14.0164 19.673 13.638C19.3854 13.0735 18.9265 12.6146 18.362 12.327C17.9836 12.1342 17.5904 12.0629 17.195 12.0306C16.8205 12 16.3657 12 15.8385 12ZM13.546 14.109C13.5955 14.0838 13.6962 14.0461 13.9678 14.0239C14.2512 14.0008 14.6234 14 15.2 14H15.8C16.3766 14 16.7488 14.0008 17.0322 14.0239C17.3038 14.0461 17.4045 14.0838 17.454 14.109C17.6422 14.2049 17.7951 14.3578 17.891 14.546C17.9162 14.5954 17.9539 14.6962 17.9761 14.9678C17.9992 15.2512 18 15.6234 18 16.2V16.8C18 17.3765 17.9992 17.7488 17.9761 18.0321C17.9539 18.3038 17.9162 18.4045 17.891 18.454C17.7951 18.6421 17.6422 18.7951 17.454 18.891C17.4045 18.9162 17.3038 18.9539 17.0322 18.9761C16.7488 18.9992 16.3766 19 15.8 19H15.2C14.6234 19 14.2512 18.9992 13.9678 18.9761C13.6962 18.9539 13.5955 18.9162 13.546 18.891C13.3579 18.7951 13.2049 18.6421 13.109 18.454C13.0838 18.4045 13.0461 18.3038 13.0239 18.0321C13.0008 17.7488 13 17.3765 13 16.8V16.2C13 15.6234 13.0008 15.2512 13.0239 14.9678C13.0461 14.6962 13.0838 14.5954 13.109 14.546C13.2049 14.3578 13.3579 14.2049 13.546 14.109ZM4.83855 0.999983H4.16146H4.16145C3.63431 0.999965 3.17955 0.99995 2.80497 1.03055C2.40963 1.06285 2.01641 1.13417 1.63803 1.32696C1.07354 1.61458 0.614603 2.07353 0.326983 2.63801C0.134189 3.01639 0.062873 3.40961 0.030572 3.80496C-3.10596e-05 4.17952 -1.63023e-05 4.63427 8.04846e-07 5.1614V5.16144V5.83853V5.83857C-1.63023e-05 6.3657 -3.10596e-05 6.82045 0.030572 7.19501C0.062873 7.59036 0.134189 7.98358 0.326983 8.36196C0.614603 8.92644 1.07354 9.38538 1.63803 9.673C2.01641 9.8658 2.40963 9.93711 2.80497 9.96941C3.17955 10 3.63432 10 4.16148 9.99998H4.83852C5.36568 10 5.82045 10 6.19503 9.96941C6.59038 9.93711 6.98359 9.8658 7.36197 9.673C7.92646 9.38538 8.3854 8.92644 8.67302 8.36196C8.86582 7.98358 8.93713 7.59036 8.96943 7.19501C9.00004 6.82044 9.00002 6.36566 9 5.83851V5.16146C9.00002 4.6343 9.00004 4.17953 8.96943 3.80496C8.93713 3.40961 8.86582 3.01639 8.67302 2.63801C8.3854 2.07353 7.92646 1.61458 7.36197 1.32696C6.98359 1.13417 6.59038 1.06285 6.19503 1.03055C5.82046 0.99995 5.3657 0.999965 4.83855 0.999983H4.83855ZM2.54601 3.10898C2.59546 3.08378 2.69618 3.04611 2.96784 3.02391C3.25118 3.00076 3.62345 2.99998 4.2 2.99998H4.8C5.37656 2.99998 5.74883 3.00076 6.03217 3.02391C6.30383 3.04611 6.40455 3.08378 6.45399 3.10898C6.64216 3.20485 6.79514 3.35783 6.89101 3.54599C6.9162 3.59544 6.95388 3.69616 6.97608 3.96782C6.99923 4.25116 7 4.62343 7 5.19998V5.79998C7 6.37654 6.99923 6.74881 6.97608 7.03215C6.95388 7.30381 6.9162 7.40453 6.89101 7.45397C6.79514 7.64214 6.64216 7.79512 6.45399 7.89099C6.40455 7.91618 6.30383 7.95386 6.03217 7.97606C5.74883 7.99921 5.37656 7.99998 4.8 7.99998H4.2C3.62345 7.99998 3.25118 7.99921 2.96784 7.97606C2.69618 7.95386 2.59546 7.91618 2.54601 7.89099C2.35785 7.79512 2.20487 7.64214 2.109 7.45397C2.0838 7.40453 2.04613 7.30381 2.02393 7.03215C2.00078 6.74881 2 6.37654 2 5.79998V5.19998C2 4.62343 2.00078 4.25116 2.02393 3.96782C2.04613 3.69616 2.0838 3.59544 2.109 3.54599C2.20487 3.35783 2.35785 3.20485 2.54601 3.10898Z" fill="#71747A"/>
</svg>
