<svg width="22" height="22" viewBox="0 0 22 22" fill="none" xmlns="http://www.w3.org/2000/svg">
<path fill-rule="evenodd" clip-rule="evenodd" d="M15.3516 0.556792C16.0867 0.25231 16.9126 0.25231 17.6477 0.556792C17.9736 0.691796 18.2419 0.890073 18.4911 1.10738C18.7277 1.31377 18.9953 1.5814 19.3054 1.89157L20.1081 2.69419C20.4183 3.00435 20.6859 3.27198 20.8923 3.5086C21.1096 3.75774 21.3079 4.02602 21.4429 4.35195C21.7474 5.08704 21.7474 5.91297 21.4429 6.64805C21.3079 6.97398 21.1096 7.24227 20.8923 7.49141C20.6859 7.72803 20.4182 7.99566 20.1081 8.30583L8.54668 19.8672C8.5391 19.8748 8.53133 19.8826 8.52337 19.8906C8.43609 19.9782 8.32627 20.0884 8.198 20.182C8.03064 20.3041 7.84533 20.3994 7.6487 20.4646C7.49797 20.5146 7.34446 20.5399 7.22245 20.56C7.21133 20.5619 7.20048 20.5637 7.18991 20.5654L4.73597 20.9744C4.30141 21.0469 3.92132 21.1102 3.60785 21.1385C3.28315 21.1678 2.9233 21.1718 2.56155 21.0559C1.79269 20.8095 1.19015 20.207 0.943759 19.4381C0.82783 19.0764 0.831873 18.7165 0.861169 18.3918C0.889452 18.0783 0.952818 17.6982 1.02526 17.2637L1.43425 14.8098C1.43601 14.7992 1.4378 14.7883 1.43963 14.7772C1.45975 14.6552 1.48506 14.5017 1.53504 14.351C1.60025 14.1543 1.69561 13.969 1.81772 13.8017C1.91131 13.6734 2.02152 13.5636 2.1091 13.4763C2.11709 13.4683 2.12489 13.4606 2.13247 13.453L13.6938 1.89162C14.004 1.58143 14.2716 1.31378 14.5083 1.10738C14.7574 0.890073 15.0257 0.691795 15.3516 0.556792ZM16.8824 2.40455C16.6373 2.30306 16.362 2.30306 16.117 2.40455C16.0754 2.42179 15.9952 2.46437 15.8229 2.61458C15.6439 2.77072 15.4246 2.98928 15.0855 3.32843L14.4139 4L17.9997 7.58579L18.6712 6.91422C19.0104 6.57507 19.2289 6.35574 19.3851 6.17674C19.5353 6.00452 19.5779 5.9243 19.5951 5.88269C19.6966 5.63766 19.6966 5.36235 19.5951 5.11732C19.5779 5.07571 19.5353 4.99549 19.3851 4.82327C19.229 4.64426 19.0104 4.42494 18.6712 4.08579L17.9139 3.32843C17.5747 2.98928 17.3554 2.77072 17.1764 2.61458C17.0042 2.46437 16.924 2.42179 16.8824 2.40455ZM16.5855 9L12.9997 5.41422L3.54668 14.8672C3.48654 14.9273 3.45693 14.9571 3.43598 14.9794C3.43543 14.98 3.43491 14.9805 3.43441 14.981C3.43427 14.9818 3.43412 14.9825 3.43397 14.9833C3.42802 15.0133 3.42102 15.0547 3.40704 15.1386L3.00392 17.5573C2.9239 18.0374 2.87376 18.3423 2.85308 18.5715C2.83626 18.7579 2.84734 18.8217 2.84898 18.8297C2.89844 18.9819 3.01777 19.1012 3.16997 19.1507C3.17797 19.1523 3.24181 19.1634 3.42814 19.1466C3.65741 19.1259 3.96229 19.0758 4.44241 18.9958L6.86111 18.5926C6.94501 18.5787 6.98639 18.5716 7.01639 18.5657C7.01717 18.5656 7.01792 18.5654 7.01863 18.5653C7.01917 18.5648 7.01972 18.5642 7.0203 18.5637C7.04257 18.5427 7.07232 18.5131 7.13247 18.453L16.5855 9Z" fill="#71747A"/>
</svg>
