<svg width="22" height="22" viewBox="0 0 22 22" fill="none" xmlns="http://www.w3.org/2000/svg">
<path d="M12.2501 16.2501C12.2501 16.9404 11.6905 17.5001 11.0001 17.5001C10.3098 17.5001 9.75012 16.9404 9.75012 16.2501C9.75012 15.5597 10.3098 15.0001 11.0001 15.0001C11.6905 15.0001 12.2501 15.5597 12.2501 16.2501Z" fill="#71747A"/>
<path d="M11 7.00006C10.1716 7.00006 9.50003 7.6716 9.5 8.5C9.5 9.05228 9.05241 9.5 8.50012 9.5C7.94786 9.5 7.50016 9.05232 7.50012 8.50006C7.50012 6.56706 9.067 5.00006 11 5.00006C12.933 5.00006 14.5 6.56706 14.5 8.50006V8.55403C14.5 9.80241 13.845 10.9592 12.7745 11.6015L12.372 11.8431C12.1412 11.9815 12 12.2309 12 12.5C12 13.0523 11.5524 13.5 11.0001 13.5C10.4479 13.5 10.0002 13.0523 10.0001 12.5001C10.0001 11.5284 10.5098 10.628 11.343 10.1281L11.7455 9.88655C12.2136 9.60571 12.5 9.09988 12.5 8.55403V8.50006C12.5 7.67163 11.8284 7.00006 11 7.00006Z" fill="#71747A"/>
<path fill-rule="evenodd" clip-rule="evenodd" d="M0 11.0001C0 4.92493 4.92487 6.10352e-05 11 6.10352e-05C17.0751 6.10352e-05 22 4.92493 22 11.0001C22 17.0752 17.0751 22.0001 11 22.0001C4.92487 22.0001 0 17.0752 0 11.0001ZM11 2.00006C6.02944 2.00006 2 6.0295 2 11.0001C2 15.9706 6.02944 20.0001 11 20.0001C15.9706 20.0001 20 15.9706 20 11.0001C20 6.0295 15.9706 2.00006 11 2.00006Z" fill="#71747A"/>
</svg>
