<svg width="20" height="20" viewBox="0 0 20 20" fill="none" xmlns="http://www.w3.org/2000/svg">
<path fill-rule="evenodd" clip-rule="evenodd" d="M16.089 2.03755C15.6389 2.00078 15.0566 2 14.2 2H13C12.4477 2 12 1.55229 12 1C12 0.447716 12.4477 9.08129e-07 13 9.08129e-07L14.2413 4.31292e-07C15.0463 -1.23241e-05 15.7106 -2.28137e-05 16.2518 0.0441945C16.8139 0.0901197 17.3306 0.188684 17.816 0.435975C18.5686 0.819468 19.1805 1.43139 19.564 2.18404C19.8113 2.66937 19.9099 3.18608 19.9558 3.74817C20 4.28936 20 4.95372 20 5.75868V14.2413C20 15.0463 20 15.7106 19.9558 16.2518C19.9099 16.8139 19.8113 17.3306 19.564 17.816C19.1805 18.5686 18.5686 19.1805 17.816 19.564C17.3306 19.8113 16.8139 19.9099 16.2518 19.9558C15.7106 20 15.0463 20 14.2413 20H13C12.4477 20 12 19.5523 12 19C12 18.4477 12.4477 18 13 18H14.2C15.0566 18 15.6389 17.9992 16.089 17.9624C16.5274 17.9266 16.7516 17.8617 16.908 17.782C17.2843 17.5903 17.5903 17.2843 17.782 16.908C17.8617 16.7516 17.9266 16.5274 17.9624 16.089C17.9992 15.6389 18 15.0566 18 14.2V5.8C18 4.94342 17.9992 4.36113 17.9624 3.91104C17.9266 3.47262 17.8617 3.24842 17.782 3.09202C17.5903 2.7157 17.2843 2.40973 16.908 2.21799C16.7516 2.1383 16.5274 2.07337 16.089 2.03755ZM6.70711 4.29289C7.09763 4.68342 7.09763 5.31658 6.70711 5.70711L3.41421 9H13C13.5523 9 14 9.44772 14 10C14 10.5523 13.5523 11 13 11H3.41421L6.70711 14.2929C7.09763 14.6834 7.09763 15.3166 6.70711 15.7071C6.31658 16.0976 5.68342 16.0976 5.29289 15.7071L0.292893 10.7071C-0.0976311 10.3166 -0.0976311 9.68342 0.292893 9.29289L5.29289 4.29289C5.68342 3.90237 6.31658 3.90237 6.70711 4.29289Z" fill="#71747A"/>
</svg>
