<svg width="20" height="23" viewBox="0 0 20 23" fill="none" xmlns="http://www.w3.org/2000/svg">
<path fill-rule="evenodd" clip-rule="evenodd" d="M9.99932 0C5.58091 -2.50339e-06 1.99932 3.58259 1.99932 8.00074V10.8268L0.619349 14.6907C0.469327 15.1107 0.338278 15.4776 0.254203 15.7841C0.167251 16.1012 0.0990016 16.458 0.150718 16.8375C0.260487 17.6431 0.755105 18.345 1.47681 18.7193C1.81683 18.8956 2.17583 18.9514 2.50364 18.9761C2.82061 19 3.21021 19 3.65622 19L5.99931 19C5.99931 21.2091 7.79017 23 9.99931 23C12.2085 23 13.9993 21.2091 13.9993 19L16.3424 19C16.7884 19 17.178 19 17.495 18.9761C17.8228 18.9514 18.1818 18.8956 18.5218 18.7193C19.2435 18.345 19.7382 17.6431 19.8479 16.8375C19.8996 16.458 19.8314 16.1012 19.7444 15.7841C19.6604 15.4776 19.5293 15.1107 19.3793 14.6906L17.9993 10.8268V8.00074C17.9993 3.5826 14.4177 2.5034e-06 9.99932 0ZM11.9993 19H7.99931C7.99931 20.1046 8.89474 21 9.99931 21C11.1039 21 11.9993 20.1046 11.9993 19ZM16.3066 17C16.799 17 17.112 16.9993 17.3445 16.9818C17.5334 16.9675 17.5953 16.9458 17.603 16.9428C17.7463 16.8677 17.8444 16.7279 17.8662 16.5675C17.8639 16.5845 17.8767 16.5357 17.8157 16.3131C17.754 16.0883 17.6493 15.7933 17.4837 15.3296L16.0655 11.3584C16.0245 11.2438 15.9993 11.1159 15.9993 10.9776V8.00074C15.9993 4.68689 13.3129 2 9.99932 2C6.68575 2 3.99932 4.68689 3.99932 8.00074V10.9776C3.99932 11.1159 3.97409 11.2438 3.93317 11.3584L2.5149 15.3296C2.34929 15.7933 2.24463 16.0883 2.18297 16.3131C2.13285 16.4959 2.13251 16.5615 2.13271 16.5697C2.15516 16.7292 2.25304 16.8681 2.39565 16.9428C2.40329 16.9458 2.4652 16.9675 2.65417 16.9818C2.88663 16.9993 3.19968 17 3.69208 17H16.3066Z" fill="#71747A"/>
</svg>
