<svg width="22" height="22" viewBox="0 0 22 22" fill="none" xmlns="http://www.w3.org/2000/svg">
<path fill-rule="evenodd" clip-rule="evenodd" d="M2 7.5C2 4.45228 4.45228 2 7.5 2C10.5477 2 13 4.45228 13 7.5C13 7.92872 12.9449 8.30617 12.8908 8.57159L12.8878 8.58641L12.8878 8.58653C12.8696 8.67598 12.8499 8.77235 12.8368 8.85536C12.8235 8.93973 12.8039 9.08355 12.8196 9.24805C12.8392 9.45316 12.8921 9.62921 12.989 9.81105C13.0999 10.0193 13.278 10.1942 13.3667 10.2813L13.3925 10.3067L18.438 15.3522C18.9369 15.8511 19.0787 16.0004 19.181 16.159C19.3113 16.3612 19.4041 16.5851 19.4549 16.8202C19.4948 17.0047 19.5 17.2106 19.5 17.9161C19.5 18.4363 19.4994 18.7722 19.4804 19.0287C19.4622 19.2751 19.4311 19.368 19.4108 19.4129C19.3107 19.6337 19.1337 19.8107 18.9129 19.9108C18.868 19.9311 18.7751 19.9622 18.5287 19.9804C18.2722 19.9994 17.9363 20 17.4161 20H16.5V19.3L16.5 19.2769V19.2768C16.5001 19.1577 16.5001 19.0155 16.4899 18.8902C16.478 18.745 16.4476 18.537 16.3365 18.319C16.1927 18.0368 15.9632 17.8073 15.681 17.6635C15.463 17.5524 15.255 17.522 15.1098 17.5101C14.9846 17.4999 14.8423 17.4999 14.7232 17.5H14.7231L14.7 17.5H14V16.8L14 16.7769C14.0001 16.6578 14.0001 16.5155 13.9899 16.3902C13.978 16.245 13.9476 16.037 13.8365 15.819C13.6927 15.5368 13.4632 15.3073 13.181 15.1635C12.963 15.0524 12.755 15.022 12.6098 15.0101C12.4845 14.9999 12.3422 14.9999 12.2231 15L12.2 15H11.5V14.8314L11.5001 14.8074C11.5007 14.7195 11.502 14.5378 11.4586 14.3569C11.4218 14.2039 11.3612 14.0576 11.279 13.9234C11.1818 13.7648 11.0524 13.6372 10.9898 13.5754L10.9728 13.5586L10.7262 13.312L10.6993 13.2847C10.6077 13.1914 10.4242 13.0044 10.2055 12.8914C10.0145 12.7927 9.82997 12.7413 9.61545 12.7272C9.44278 12.7158 9.2928 12.7424 9.20582 12.7598C9.11952 12.777 9.01929 12.8018 8.9257 12.825L8.91035 12.8288C8.58405 12.9096 8.08607 13 7.5 13C4.45228 13 2 10.5477 2 7.5ZM7.5 0C3.34772 0 0 3.34772 0 7.5C0 11.6523 3.34772 15 7.5 15C8.26924 15 8.9209 14.8847 9.36288 14.7771L9.5 14.9142V15.2L9.49999 15.2231C9.49995 15.3422 9.49989 15.4845 9.51013 15.6098C9.522 15.755 9.55244 15.963 9.66349 16.181C9.8073 16.4632 10.0368 16.6927 10.319 16.8365C10.537 16.9476 10.745 16.978 10.8902 16.9899C11.0154 17.0001 11.1577 17.0001 11.2767 17H11.2768L11.3 17H12V17.7L12 17.7231C11.9999 17.8422 11.9999 17.9845 12.0101 18.1098C12.022 18.255 12.0524 18.463 12.1635 18.681C12.3073 18.9632 12.5368 19.1927 12.819 19.3365C13.037 19.4476 13.245 19.478 13.3902 19.4899C13.5154 19.5001 13.6577 19.5001 13.7768 19.5H13.7769L13.8 19.5H14.5V20.2L14.5 20.2231C14.4999 20.3422 14.4999 20.4845 14.5101 20.6098C14.522 20.755 14.5524 20.963 14.6635 21.181C14.8073 21.4632 15.0368 21.6927 15.319 21.8365C15.537 21.9476 15.745 21.978 15.8902 21.9899C16.0154 22.0001 16.1577 22.0001 16.2767 22H16.2769L16.3 22H17.4161H17.4508C17.9265 22 18.337 22 18.6761 21.975C19.0334 21.9486 19.39 21.8904 19.7387 21.7323C20.4012 21.432 20.932 20.9012 21.2323 20.2387C21.3904 19.89 21.4486 19.5334 21.475 19.1761C21.5 18.837 21.5 18.4265 21.5 17.9508V17.9161L21.5 17.8241V17.8241C21.5003 17.2506 21.5005 16.8175 21.4098 16.3978C21.3082 15.9276 21.1226 15.4797 20.862 15.0755C20.6294 14.7145 20.323 14.4084 19.9173 14.0031L19.9173 14.0031L19.8522 13.938L14.8564 8.94216C14.9282 8.5818 15 8.0786 15 7.5C15 3.34772 11.6523 0 7.5 0ZM6.5 8C7.32843 8 8 7.32843 8 6.5C8 5.67157 7.32843 5 6.5 5C5.67157 5 5 5.67157 5 6.5C5 7.32843 5.67157 8 6.5 8Z" fill="#71747A"/>
</svg>
