<svg width="20" height="20" viewBox="0 0 20 20" fill="none" xmlns="http://www.w3.org/2000/svg">
<path d="M10 2C6.194 2 3.0066 4.65879 2.19823 8.22129C2.07601 8.75988 1.54033 9.09742 1.00173 8.97521C0.46314 8.85299 0.125598 8.31731 0.247811 7.77871C1.25835 3.32525 5.23966 0 10 0C13.2724 0 16.1764 1.57195 18 3.99929V1.25C18 0.697715 18.4477 0.25 19 0.25C19.5523 0.25 20 0.697715 20 1.25V6.25C20 6.80228 19.5523 7.25 19 7.25H14C13.4477 7.25 13 6.80228 13 6.25C13 5.69772 13.4477 5.25 14 5.25H16.438C14.9801 3.27729 12.6386 2 10 2Z" fill="#9D9FA3"/>
<path d="M18.9983 11.0248C19.5369 11.147 19.8744 11.6827 19.7522 12.2213C18.7416 16.6747 14.7603 20 10 20C6.7276 20 3.82361 18.428 2 16.0007V18.75C2 19.3023 1.55228 19.75 1 19.75C0.447715 19.75 0 19.3023 0 18.75V13.75C0 13.1977 0.447715 12.75 1 12.75H6C6.55228 12.75 7 13.1977 7 13.75C7 14.3023 6.55228 14.75 6 14.75H3.56196C5.01987 16.7227 7.36142 18 10 18C13.806 18 16.9934 15.3412 17.8018 11.7787C17.924 11.2401 18.4597 10.9026 18.9983 11.0248Z" fill="#9D9FA3"/>
</svg>
