<svg width="22" height="20" viewBox="0 0 22 20" fill="none" xmlns="http://www.w3.org/2000/svg">
<path fill-rule="evenodd" clip-rule="evenodd" d="M2.5 3.45567C2.70107 3.29593 2.99628 3.08245 3.37114 2.86824C4.14507 2.426 5.22378 2 6.5 2C7.76569 2 8.70093 2.41914 9.3203 2.83205C9.6239 3.03445 9.85086 3.23516 10 3.38301V16.9038C9.14142 16.4183 7.97178 16 6.5 16C4.84624 16 3.47089 16.5283 2.5 17.0637V3.45567ZM2.20661 19.7076C1.92061 19.9932 1.49078 20.0786 1.11732 19.9239C0.743642 19.7691 0.5 19.4045 0.5 19V3C0.5 2.73478 0.605357 2.48043 0.792893 2.29289L1.5 3C0.792893 2.29289 0.792619 2.29317 0.792893 2.29289L0.795344 2.29045L0.798551 2.28727L0.807223 2.27876L0.833538 2.2534C0.855035 2.23293 0.88444 2.20544 0.921511 2.17196C0.995599 2.10504 1.10063 2.01387 1.23468 1.90663C1.50216 1.69265 1.88875 1.41182 2.37886 1.13176C3.35493 0.574004 4.77622 0 6.5 0C8.23431 0 9.54907 0.580861 10.4297 1.16795C10.6457 1.31192 10.8357 1.45633 11 1.59283C11.1643 1.45633 11.3543 1.31192 11.5703 1.16795C12.4509 0.580861 13.7657 0 15.5 0C17.2238 0 18.6451 0.574004 19.6211 1.13176C20.1112 1.41182 20.4978 1.69265 20.7653 1.90663C20.8994 2.01387 21.0044 2.10504 21.0785 2.17196C21.1156 2.20544 21.145 2.23293 21.1665 2.2534L21.1928 2.27876L21.2014 2.28727L21.2047 2.29045L21.206 2.29176C21.2063 2.29204 21.2071 2.29289 20.5 3L21.2071 2.29289C21.3946 2.48043 21.5 2.73478 21.5 3V19C21.5 19.4045 21.2564 19.7691 20.8827 19.9239C20.5102 20.0782 20.0815 19.9936 19.7955 19.7097C19.7946 19.7089 19.7938 19.708 19.7929 19.7071L20.5 19C19.7929 19.7071 19.7926 19.7069 19.7929 19.7071L19.7938 19.7081L19.7946 19.7088L19.7872 19.7017C19.7779 19.6929 19.7614 19.6774 19.7379 19.6562C19.6909 19.6137 19.6163 19.5486 19.5159 19.4684C19.3147 19.3074 19.0138 19.0882 18.6289 18.8682C17.8549 18.426 16.7762 18 15.5 18C14.2343 18 13.2991 18.4191 12.6797 18.8321C12.3681 19.0398 12.1372 19.2457 11.9884 19.3946C11.9142 19.4688 11.8612 19.528 11.8296 19.5649C11.8138 19.5833 11.8034 19.596 11.7984 19.6022C11.7971 19.6039 11.7962 19.6051 11.7956 19.6058C11.6066 19.8541 11.3123 20 11 20C10.6876 20 10.3934 19.8541 10.2043 19.6057C10.2038 19.6051 10.2029 19.6039 10.2016 19.6022C10.1966 19.596 10.1862 19.5833 10.1704 19.5649C10.1388 19.528 10.0858 19.4688 10.0116 19.3946C9.86278 19.2457 9.63191 19.0398 9.3203 18.8321C8.70093 18.4191 7.76569 18 6.5 18C5.22378 18 4.14507 18.426 3.37114 18.8682C2.98625 19.0882 2.68534 19.3074 2.48407 19.4684C2.38374 19.5486 2.30909 19.6137 2.26208 19.6562C2.23861 19.6774 2.22211 19.6929 2.21285 19.7017L2.20539 19.7088L2.20661 19.7076ZM12 16.9038C12.8586 16.4183 14.0282 16 15.5 16C17.1538 16 18.5291 16.5283 19.5 17.0637V3.45567C19.2989 3.29593 19.0037 3.08245 18.6289 2.86824C17.8549 2.426 16.7762 2 15.5 2C14.2343 2 13.2991 2.41914 12.6797 2.83205C12.3761 3.03445 12.1491 3.23516 12 3.38301V16.9038ZM19.7956 3.70977C19.796 3.71021 19.7961 3.71024 19.7956 3.70977V3.70977Z" fill="#71747A"/>
</svg>
