<svg width="22" height="18" viewBox="0 0 22 18" fill="none" xmlns="http://www.w3.org/2000/svg">
<path fill-rule="evenodd" clip-rule="evenodd" d="M6.2587 4.11647e-07H15.7413H15.7413C16.5463 -1.19522e-05 17.2106 -2.21543e-05 17.7518 0.0441949C18.3139 0.0901201 18.8306 0.188684 19.316 0.435975C20.0686 0.819469 20.6805 1.43139 21.064 2.18404C21.3113 2.66937 21.4099 3.18608 21.4558 3.74818C21.5 4.28937 21.5 4.95372 21.5 5.75868V12.2413C21.5 13.0463 21.5 13.7106 21.4558 14.2518C21.4099 14.8139 21.3113 15.3306 21.064 15.816C20.6805 16.5686 20.0686 17.1805 19.316 17.564C18.8306 17.8113 18.3139 17.9099 17.7518 17.9558C17.2106 18 16.5463 18 15.7413 18H6.25868C5.45372 18 4.78937 18 4.24818 17.9558C3.68608 17.9099 3.16937 17.8113 2.68404 17.564C1.93139 17.1805 1.31947 16.5686 0.935975 15.816C0.688684 15.3306 0.59012 14.8139 0.544195 14.2518C0.499978 13.7106 0.499988 13.0463 0.5 12.2413V12.2413V5.7587V5.75869C0.499988 4.95372 0.499978 4.28937 0.544195 3.74818C0.59012 3.18608 0.688684 2.66937 0.935975 2.18404C1.31947 1.43139 1.93139 0.819469 2.68404 0.435975C3.16937 0.188684 3.68608 0.0901201 4.24818 0.0441949C4.78937 -2.2158e-05 5.45372 -1.19522e-05 6.25869 4.11647e-07H6.2587ZM4.41104 2.03755C3.97262 2.07337 3.74842 2.1383 3.59202 2.21799C3.2157 2.40973 2.90973 2.7157 2.71799 3.09202C2.6383 3.24842 2.57337 3.47262 2.53755 3.91104C2.51357 4.20463 2.50489 4.55447 2.50176 5H19.4982C19.4951 4.55447 19.4864 4.20463 19.4624 3.91104C19.4266 3.47262 19.3617 3.24842 19.282 3.09202C19.0903 2.7157 18.7843 2.40973 18.408 2.21799C18.2516 2.1383 18.0274 2.07337 17.589 2.03755C17.1389 2.00078 16.5566 2 15.7 2H6.3C5.44342 2 4.86113 2.00078 4.41104 2.03755ZM19.5 7H2.5V12.2C2.5 13.0566 2.50078 13.6389 2.53755 14.089C2.57337 14.5274 2.6383 14.7516 2.71799 14.908C2.90973 15.2843 3.2157 15.5903 3.59202 15.782C3.74842 15.8617 3.97262 15.9266 4.41104 15.9625C4.86113 15.9992 5.44342 16 6.3 16H15.7C16.5566 16 17.1389 15.9992 17.589 15.9625C18.0274 15.9266 18.2516 15.8617 18.408 15.782C18.7843 15.5903 19.0903 15.2843 19.282 14.908C19.3617 14.7516 19.4266 14.5274 19.4624 14.089C19.4992 13.6389 19.5 13.0566 19.5 12.2V7ZM12.5 10C12.5 10.5523 12.0523 11 11.5 11H5.5C4.94772 11 4.5 10.5523 4.5 10C4.5 9.44771 4.94772 9 5.5 9H11.5C12.0523 9 12.5 9.44771 12.5 10Z" fill="#71747A"/>
</svg>
