<svg width="64" height="56" viewBox="0 0 64 56" fill="none" xmlns="http://www.w3.org/2000/svg">
<g clip-path="url(#clip0_16774_46046)">
<path fill-rule="evenodd" clip-rule="evenodd" d="M31.9993 16C27.5809 16 23.9993 19.5826 23.9993 24.0007V26.8268L22.6193 30.6907C22.4693 31.1107 22.3383 31.4776 22.2542 31.7841C22.1673 32.1012 22.099 32.458 22.1507 32.8375C22.2605 33.6431 22.7551 34.345 23.4768 34.7193C23.8168 34.8956 24.1758 34.9514 24.5036 34.9761C24.8206 35 25.2102 35 25.6562 35L27.9993 35C27.9993 37.2091 29.7902 39 31.9993 39C34.2085 39 35.9993 37.2091 35.9993 35L38.3424 35C38.7884 35 39.178 35 39.495 34.9761C39.8228 34.9514 40.1818 34.8956 40.5218 34.7193C41.2435 34.345 41.7382 33.6431 41.8479 32.8375C41.8996 32.458 41.8314 32.1012 41.7444 31.7841C41.6604 31.4776 41.5293 31.1107 41.3793 30.6906L39.9993 26.8268V24.0007C39.9993 19.5826 36.4177 16 31.9993 16ZM33.9993 35H29.9993C29.9993 36.1046 30.8947 37 31.9993 37C33.1039 37 33.9993 36.1046 33.9993 35ZM38.3066 33C38.799 33 39.112 32.9993 39.3445 32.9818C39.5334 32.9675 39.5953 32.9458 39.603 32.9428C39.7463 32.8677 39.8444 32.7279 39.8662 32.5675C39.8639 32.5845 39.8767 32.5357 39.8157 32.3131C39.754 32.0883 39.6493 31.7933 39.4837 31.3296L38.0655 27.3584C38.0245 27.2438 37.9993 27.1159 37.9993 26.9776V24.0007C37.9993 20.6869 35.3129 18 31.9993 18C28.6858 18 25.9993 20.6869 25.9993 24.0007V26.9776C25.9993 27.1159 25.9741 27.2438 25.9332 27.3584L24.5149 31.3296C24.3493 31.7933 24.2446 32.0883 24.183 32.3131C24.1329 32.4959 24.1325 32.5615 24.1327 32.5697C24.1552 32.7292 24.253 32.8681 24.3957 32.9428C24.4033 32.9458 24.4652 32.9675 24.6542 32.9818C24.8866 32.9993 25.1997 33 25.6921 33H38.3066Z" fill="#71747A"/>
</g>
<defs>
<clipPath id="clip0_16774_46046">
<rect width="24" height="24" fill="white" transform="translate(20 16)"/>
</clipPath>
</defs>
</svg>
