<svg width="64" height="56" viewBox="0 0 64 56" fill="none" xmlns="http://www.w3.org/2000/svg">
<g clip-path="url(#clip0_16774_46069)">
<path fill-rule="evenodd" clip-rule="evenodd" d="M32.7812 37.5C32.9881 37.5 33.1737 37.3726 33.2479 37.1795C34.1924 34.7239 36.7243 33.2621 39.3231 33.672C39.5274 33.7042 39.7305 33.6073 39.834 33.4281L40.617 32.0719C40.7204 31.8927 40.7028 31.6684 40.5728 31.5075C38.9184 29.4618 38.9184 26.5382 40.5728 24.4925C40.7028 24.3316 40.7204 24.1073 40.617 23.9281L39.834 22.5719C39.7305 22.3927 39.5274 22.2958 39.3231 22.328C36.7242 22.7379 34.1924 21.2761 33.2479 18.8205C33.1736 18.6274 32.9881 18.5 32.7812 18.5L31.2152 18.5C31.0084 18.5 30.8228 18.6274 30.7486 18.8205C29.8041 21.2761 27.2722 22.7379 24.6734 22.328C24.4691 22.2958 24.2659 22.3927 24.1625 22.5719L23.3795 23.9281C23.2761 24.1073 23.2936 24.3316 23.4237 24.4925C25.0781 26.5382 25.0781 29.4618 23.4237 31.5075C23.2936 31.6684 23.2761 31.8927 23.3795 32.0719L21.6475 33.0719C21.1302 32.1761 21.2182 31.0542 21.8686 30.2499C22.9298 28.9377 22.9298 27.0623 21.8686 25.7501C21.2182 24.9458 21.1302 23.8239 21.6475 22.9281L22.4305 21.5719C22.9477 20.6761 23.9632 20.1913 24.985 20.3524C26.652 20.6153 28.2761 19.6777 28.8819 18.1026C29.2532 17.1371 30.1808 16.5 31.2152 16.5L32.7812 16.5C33.8157 16.5 34.7433 17.1371 35.1146 18.1026C35.7204 19.6777 37.3445 20.6153 39.0115 20.3524C40.0333 20.1913 41.0488 20.6761 41.566 21.5719L42.349 22.9281C42.8662 23.8239 42.7783 24.9458 42.1279 25.7501C41.0667 27.0623 41.0667 28.9377 42.1279 30.2499C42.7783 31.0542 42.8663 32.1761 42.349 33.0719L41.566 34.4281C41.0488 35.3239 40.0333 35.8087 39.0115 35.6476C37.3445 35.3847 35.7204 36.3223 35.1146 37.8975C34.7433 38.8629 33.8157 39.5 32.7812 39.5H31.2152C30.1808 39.5 29.2532 38.8629 28.8819 37.8974C28.2761 36.3223 26.652 35.3847 24.985 35.6476C23.9632 35.8087 22.9477 35.3239 22.4305 34.4281L21.6475 33.0719L23.3795 32.0719L24.1625 33.4281C24.2659 33.6073 24.4691 33.7042 24.6734 33.672C27.2722 33.2621 29.8041 34.7239 30.7486 37.1795C30.8228 37.3726 31.0084 37.5 31.2152 37.5H32.7812ZM27.4982 28C27.4982 25.5147 29.513 23.5 31.9982 23.5C34.4835 23.5 36.4982 25.5147 36.4982 28C36.4982 30.4853 34.4835 32.5 31.9982 32.5C29.513 32.5 27.4982 30.4853 27.4982 28ZM29.4982 28C29.4982 26.6193 30.6175 25.5 31.9982 25.5C33.379 25.5 34.4982 26.6193 34.4982 28C34.4982 29.3807 33.379 30.5 31.9982 30.5C30.6175 30.5 29.4982 29.3807 29.4982 28Z" fill="#71747A"/>
</g>
<defs>
<clipPath id="clip0_16774_46069">
<rect width="24" height="24" fill="white" transform="translate(20 16)"/>
</clipPath>
</defs>
</svg>
