<svg width="64" height="56" viewBox="0 0 64 56" fill="none" xmlns="http://www.w3.org/2000/svg">
<g clip-path="url(#clip0_16774_46099)">
<path fill-rule="evenodd" clip-rule="evenodd" d="M27.7588 17H36.2414C37.0463 17 37.7107 17 38.2519 17.0442C38.814 17.0901 39.3307 17.1887 39.816 17.436C40.5687 17.8195 41.1806 18.4314 41.5641 19.184C41.8114 19.6694 41.91 20.1861 41.9559 20.7482C42.0001 21.2894 42.0001 21.9537 42.0001 22.7587V28.2413C42.0001 29.0463 42.0001 29.7106 41.9559 30.2518C41.91 30.8139 41.8114 31.3306 41.5641 31.816C41.1806 32.5686 40.5687 33.1805 39.816 33.564C39.3307 33.8113 38.814 33.9099 38.2519 33.9558C37.7107 34 37.0464 34 36.2414 34H34.0862C33.9699 34 33.9122 34.0002 33.8702 34.0019L33.8671 34.0021L33.8647 34.0039C33.8316 34.0297 33.7874 34.0668 33.6986 34.142L28.3044 38.7063C28.2982 38.7115 28.2919 38.7169 28.2854 38.7224C28.1983 38.7962 28.0878 38.8897 27.986 38.9612C27.8943 39.0256 27.6359 39.2034 27.2755 39.2107C26.8901 39.2186 26.5226 39.0481 26.2796 38.7488C26.0524 38.4689 26.0212 38.1568 26.0111 38.0453C25.9999 37.9214 26 37.7766 26.0001 37.6624C26.0001 37.6539 26.0001 37.6457 26.0001 37.6376V33.9938C25.6587 33.9839 25.3655 33.959 25.0959 33.8965C23.6093 33.5515 22.4486 32.3908 22.1036 30.9042C21.9995 30.4554 21.9997 29.9415 22 29.2488C22.0001 29.2095 22.0001 29.1696 22.0001 29.129L22.0001 22.7587C22.0001 21.9537 22 21.2894 22.0443 20.7482C22.0902 20.1861 22.1888 19.6694 22.436 19.184C22.8195 18.4314 23.4315 17.8195 24.1841 17.436C24.6694 17.1887 25.1861 17.0901 25.7482 17.0442C26.2894 17 26.9538 17 27.7588 17ZM25.9111 19.0376C25.4727 19.0734 25.2485 19.1383 25.0921 19.218C24.7158 19.4097 24.4098 19.7157 24.2181 20.092C24.1384 20.2484 24.0734 20.4726 24.0376 20.911C24.0009 21.3611 24.0001 21.9434 24.0001 22.8V29.129C24.0001 29.9945 24.0066 30.2571 24.0518 30.4521C24.2243 31.1954 24.8047 31.7758 25.548 31.9482C25.7429 31.9935 26.0055 32 26.871 32L26.8729 32C26.8821 32 26.9126 31.9999 26.9425 32.0011C26.9797 32.0026 27.0561 32.007 27.1487 32.0285C27.5575 32.1233 27.8767 32.4425 27.9716 32.8513C27.9931 32.944 27.9975 33.0204 27.999 33.0576C28.0002 33.0875 28.0001 33.118 28.0001 33.1271L28.0001 33.129V36.3439L32.4067 32.6152C32.4179 32.6057 32.4294 32.596 32.4412 32.586C32.5698 32.4766 32.7318 32.3389 32.9223 32.2368C33.0877 32.1483 33.2647 32.0834 33.4481 32.0442C33.6595 31.999 33.8721 31.9995 34.041 31.9999C34.0564 32 34.0715 32 34.0862 32H36.2001C37.0567 32 37.6389 31.9992 38.089 31.9624C38.5275 31.9266 38.7517 31.8617 38.9081 31.782C39.2844 31.5903 39.5903 31.2843 39.7821 30.908C39.8618 30.7516 39.9267 30.5274 39.9625 30.089C39.9993 29.6389 40.0001 29.0566 40.0001 28.2V22.8C40.0001 21.9434 39.9993 21.3611 39.9625 20.911C39.9267 20.4726 39.8618 20.2484 39.7821 20.092C39.5903 19.7157 39.2844 19.4097 38.9081 19.218C38.7517 19.1383 38.5275 19.0734 38.089 19.0376C37.6389 19.0008 37.0567 19 36.2001 19H27.8001C26.9435 19 26.3612 19.0008 25.9111 19.0376Z" fill="#71747A"/>
</g>
<defs>
<clipPath id="clip0_16774_46099">
<rect width="24" height="24" fill="white" transform="translate(20 16)"/>
</clipPath>
</defs>
</svg>
