<svg width="64" height="56" viewBox="0 0 64 56" 
fill="none" xmlns="http://www.w3.org/2000/svg">
<g clip-path="url(#clip0_16774_46130)">
<path d="M28.6464 30.256L29.9268 28.122C30.2336 27.6106 30.387 27.355 30.5739 27.1273C30.7398 26.9252 30.9252 26.7398 31.1273 26.5739C31.355 26.387 31.6106 26.2336 32.122 25.9268L34.256 24.6464C35.0621 24.1627 35.4651 23.9209 35.6684 23.9739C35.8436 24.0196 35.9804 24.1564 36.0261 24.3316C36.0791 24.5349 35.8373 24.9379 35.3536 25.744L34.0732 27.878C33.7664 28.3894 33.613 28.6451 33.4261 28.8727C33.2602 29.0748 33.0748 29.2602 32.8727 29.4261C32.645 29.613 32.3894 29.7664 31.878 30.0732L29.744 31.3536C28.9379 31.8373 28.5349 32.0791 28.3316 32.0261C28.1564 31.9804 28.0196 31.8436 27.9739 31.6684C27.9209 31.4652 28.1627 31.0621 28.6464 30.256Z" 
fill="#71747A"/>
<path fill-rule="evenodd" clip-rule="evenodd" d="M32 17.25C26.0629 17.25 21.25 22.0629 21.25 28C21.25 33.9371 26.0629 38.75 32 38.75C37.9371 38.75 42.75 33.9371 42.75 28C42.75 22.0629 37.9371 17.25 32 17.25ZM23.25 28C23.25 23.1675 27.1675 19.25 32 19.25C36.8325 19.25 40.75 23.1675 40.75 28C40.75 32.8325 36.8325 36.75 32 36.75C27.1675 36.75 23.25 32.8325 23.25 28Z" 
fill="#71747A"/>
</g>
<defs>
<clipPath id="clip0_16774_46130">
<rect width="24" height="24" fill="white" transform="translate(20 16)"/>
</clipPath>
</defs>
</svg>
