<svg width="64" height="56" viewBox="0 0 64 56" fill="none" xmlns="http://www.w3.org/2000/svg">
<path fill-rule="evenodd" clip-rule="evenodd" d="M32 16.5C29.3766 16.5 27.25 18.6266 27.25 21.25C27.25 23.8734 29.3766 26 32 26C34.6234 26 36.75 23.8734 36.75 21.25C36.75 18.6266 34.6234 16.5 32 16.5ZM29.25 21.25C29.25 19.7312 30.4812 18.5 32 18.5C33.5188 18.5 34.75 19.7312 34.75 21.25C34.75 22.7688 33.5188 24 32 24C30.4812 24 29.25 22.7688 29.25 21.25Z" fill="#71747A"/>
<path fill-rule="evenodd" clip-rule="evenodd" d="M32 28C24.135 28 21.5 32.2774 21.5 34.5C21.5 35.4772 21.8301 36.3693 22.4804 37.0196C23.1307 37.6699 24.0228 38 25 38H39C39.9772 38 40.8693 37.6699 41.5196 37.0196C42.1699 36.3693 42.5 35.4772 42.5 34.5C42.5 32.2774 39.865 28 32 28ZM23.5 34.5C23.5 33.7226 24.865 30 32 30C39.135 30 40.5 33.7226 40.5 34.5C40.5 35.0228 40.3301 35.3807 40.1054 35.6054C39.8807 35.8301 39.5228 36 39 36H25C24.4772 36 24.1193 35.8301 23.8946 35.6054C23.6699 35.3807 23.5 35.0228 23.5 34.5Z" fill="#71747A"/>
</svg>
