<svg width="20" height="23" viewBox="0 0 20 23" fill="none" xmlns="http://www.w3.org/2000/svg">
<path d="M14.2414 4.11794e-07H5.75877C4.95381 -1.1955e-05 4.28944 -2.2158e-05 3.74825 0.0441949C3.18615 0.0901201 2.66945 0.188684 2.18411 0.435975C1.43146 0.819469 0.819541 1.43139 0.436047 2.18404C0.188756 2.66937 0.0901921 3.18608 0.0442669 3.74818C4.95836e-05 4.28937 6.0073e-05 4.95373 7.28284e-05 5.7587L3.58735e-05 12.2488C-0.000291356 12.9415 -0.000534065 13.4554 0.103609 13.9042C0.448572 15.3908 1.60932 16.5515 3.09588 16.8965C3.36554 16.959 3.65873 16.9839 4.00007 16.9938L4.00006 20.6624C4 20.7766 3.99992 20.9214 4.01112 21.0453C4.02121 21.1568 4.05239 21.4689 4.27962 21.7488C4.52259 22.0481 4.89007 22.2186 5.2755 22.2107C5.63595 22.2034 5.89432 22.0256 5.98599 21.9612C6.08785 21.8897 6.19833 21.7961 6.28543 21.7224L11.6986 17.142C11.7874 17.0668 11.8316 17.0297 11.8647 17.0039L11.8671 17.0021L11.8702 17.0019C11.9122 17.0002 11.9699 17 12.0862 17H14.2414C15.0464 17 15.7107 17 16.2519 16.9558C16.814 16.9099 17.3307 16.8113 17.816 16.564C18.5687 16.1805 19.1806 15.5686 19.5641 14.816C19.8114 14.3306 19.91 13.8139 19.9559 13.2518C20.0001 12.7106 20.0001 12.0463 20.0001 11.2413V5.75868C20.0001 4.95372 20.0001 4.28937 19.9559 3.74818C19.91 3.18608 19.8114 2.66937 19.5641 2.18404C19.1806 1.43139 18.5687 0.819469 17.816 0.435976C17.3307 0.188684 16.814 0.0901201 16.2519 0.0441949C15.7107 -2.2158e-05 15.0463 -1.1955e-05 14.2414 4.11794e-07Z" fill="#248BF2"/>
</svg>
